<svg enable-background="new 0 0 1770.2 780.1" version="1.1" viewBox="0 0 1770.2 780.1" xml:space="preserve" xmlns="http://www.w3.org/2000/svg" xmlns:xlink="http://www.w3.org/1999/xlink"><defs><linearGradient id="linearGradient1611" x1="322.84" x2="951.56" y1="441.3" y2="441.3" gradientTransform="matrix(1.277 0 0 1.277 -75.992 -164.69)" gradientUnits="userSpaceOnUse"><stop stop-color="#6ea6e8" stop-opacity="0" offset="0"/><stop stop-color="#6ea6e8" offset="1"/></linearGradient></defs>
<style type="text/css">
	.st0{fill:#4A90E2;}
	.st1{fill:#000034;}
	.st2{fill:#FFFFFF;}
</style>

<path d="m752.92 15.565a66.164 66.164 0 0 0-65.852 66.163 66.164 66.164 0 0 0 66.163 66.163 66.164 66.164 0 0 0 66.163-66.163 66.164 66.164 0 0 0-66.163-66.163 66.164 66.164 0 0 0-0.31103 0zm239.68 157.68c-14.441 0.2966-32.299 5.1677-41.831 12.263-12.963 9.6506-27.917 35.987-27.212 47.924 0.30918 5.2365 1.3788 21.107 2.3758 35.266 1.2432 17.653 0.0979 32.197-3.6424 46.275-10.79 40.617-42.935 75.636-83.649 91.13-50.802 19.333-114.22 2.2323-149.46-40.304-12.313-14.861-26.279-44.617-30.371-64.702-4.3727-21.468-23.163-40.05-47.534-47.006-16.134-4.6051-42.792 0.30269-56.31 10.367-12.963 9.6506-27.917 35.989-27.212 47.926 0.30918 5.2365 1.377 21.105 2.3737 35.264 2.2977 32.63-4.6718 60.179-21.668 85.646-16.996 25.467-39.761 42.473-70.776 52.87-13.458 4.5119-28.523 9.6132-33.478 11.337-11.294 3.9287-29.879 27.843-33.817 43.517-4.107 16.345 1.5892 42.846 12.032 55.979 9.5308 11.986 23.707 21.354 38.53 25.46 14.958 4.1437 41.638-1.8766 55.799-12.591 13.771-10.419 24.877-29.803 25.65-44.767 0.30886-5.9738-0.26104-22.445-1.2667-36.602-1.2557-17.684-0.12274-32.168 3.624-46.273 14.707-55.357 67.4-97.572 123.55-98.98 11.345-0.28454 27.069 0.91453 34.943 2.6643 35.648 7.9218 72.812 35.666 88.552 66.106 4.0555 7.8436 10.044 23.887 13.307 35.653 6.3558 22.915 13.428 34.081 28.485 44.968 14.893 10.769 31.474 14.17 50.533 10.369 20.854-4.1598 37.32-15.928 46.731-33.4 7.708-14.311 8.6594-23.712 6.0775-60.059-1.256-17.684-0.12134-32.166 3.626-46.271 14.706-55.357 67.4-97.572 123.55-98.98 11.345-0.28459 27.069 0.91452 34.943 2.6643 36.233 8.052 72.733 35.619 89.288 67.434 10.227 19.652 17.374 55.753 15.452 78.046-2.8523 33.077-24.415 71.543-52.346 93.383-11.88 9.2891-27.908 16.494-51.27 23.045-11.502 3.2257-23.993 7.7963-27.758 10.158-10.069 6.316-25.566 28.414-28.716 40.947-3.8641 15.377 2.4517 44.623 12.313 57.02 8.908 11.198 23.195 20.695 37.5 24.926 14.454 4.2748 42.369-1.9478 56.417-12.577 13.771-10.419 24.877-29.803 25.65-44.767 0.3088-5.9738-0.2613-22.445-1.2667-36.602-2.3172-32.622 4.6439-60.157 21.652-85.642 17.009-25.485 39.765-42.477 70.78-52.854 13.46-4.5034 28.89-10.296 34.288-12.873 13.522-6.4554 27.16-24.15 31.499-40.865 4.7289-18.219-0.1873-44.115-10.94-57.632-15.367-19.318-39.957-29.494-61.234-25.339-20.118 3.9285-52.954 2.4463-71.402-3.2229-21.667-6.6585-49.512-25.242-63.974-42.696-12.307-14.853-26.278-44.613-30.365-64.671-4.4249-21.724-23.921-40.61-49.152-47.615-3.6192-1.0049-8.0534-1.4146-12.867-1.3158zm-320.05 475.38a66.164 66.164 0 0 0-65.852 66.163 66.164 66.164 0 0 0 66.163 66.163 66.164 66.164 0 0 0 66.163-66.163 66.164 66.164 0 0 0-66.163-66.163 66.164 66.164 0 0 0-0.31104 0z" fill="url(#linearGradient1611)"/></svg>
