<svg
   xmlns:dc="http://purl.org/dc/elements/1.1/"
   xmlns:cc="http://creativecommons.org/ns#"
   xmlns:rdf="http://www.w3.org/1999/02/22-rdf-syntax-ns#"
   xmlns:svg="http://www.w3.org/2000/svg"
   xmlns="http://www.w3.org/2000/svg"
   xmlns:xlink="http://www.w3.org/1999/xlink"
   xmlns:sodipodi="http://sodipodi.sourceforge.net/DTD/sodipodi-0.dtd"
   xmlns:inkscape="http://www.inkscape.org/namespaces/inkscape"
   inkscape:version="1.0 (4035a4fb49, 2020-05-01)"
   sodipodi:docname="nano-mark.svg"
   xml:space="preserve"
   style="enable-background:new 0 0 1770.2 780.1;"
   viewBox="0 0 1770.2 780.1"
   y="0px"
   x="0px"
   id="Layer_1"
   version="1.1"><metadata
   id="metadata17"><rdf:RDF><cc:Work
       rdf:about=""><dc:format>image/svg+xml</dc:format><dc:type
         rdf:resource="http://purl.org/dc/dcmitype/StillImage" /></cc:Work></rdf:RDF></metadata><defs
   id="defs15"><linearGradient
     id="linearGradient846"
     inkscape:collect="always"><stop
       id="stop842"
       offset="0"
       style="stop-color:#6ea6e8;stop-opacity:0" /><stop
       id="stop844"
       offset="1"
       style="stop-color:#6ea6e8;stop-opacity:1" /></linearGradient><linearGradient
     gradientUnits="userSpaceOnUse"
     y2="392.90436"
     x2="1228.0087"
     y1="392.90436"
     x1="273.53915"
     id="linearGradient848"
     xlink:href="#linearGradient846"
     inkscape:collect="always" /></defs><sodipodi:namedview
   inkscape:current-layer="Layer_1"
   inkscape:window-maximized="1"
   inkscape:window-y="-8"
   inkscape:window-x="-8"
   inkscape:cy="390.04999"
   inkscape:cx="885.09998"
   inkscape:zoom="0.68862277"
   showgrid="false"
   id="namedview13"
   inkscape:window-height="1017"
   inkscape:window-width="1920"
   inkscape:pageshadow="2"
   inkscape:pageopacity="0"
   guidetolerance="10"
   gridtolerance="10"
   objecttolerance="10"
   borderopacity="1"
   bordercolor="#666666"
   pagecolor="#ffffff" />
<style
   id="style2"
   type="text/css">
	.st0{fill:#06c2b5;}
	.st1{fill:#b7ebde;}
	.st2{fill:#06c2b5;}
</style>
  <path id="Centro_meio" data-name="Centro meio" class="st2" d="M543.351,478.282c18.047,0.376,38.067-1.5,48.5,18.045s-34.5,40.978-48.5,41.73-40.511-16.542-47.372-37.218S525.3,477.906,543.351,478.282ZM520.793,850.466h59.779l-28.2-91.354"/>
  <path id="Centro_esq" data-name="Centro esq" class="st2" d="M535.456,480.538C505,473.771,492.6,496.327,492.6,496.327L326.792,650.84S217.948,754.6,285.059,851.594s179.9,62.03,224.455,25.939,31.581-28.2,31.581-28.2S565.91,487.305,535.456,480.538Z"/>
  <path id="Centro_dir" data-name="Centro dir" class="st2" d="M549.749,481.666c30.453-6.768,42.86,15.789,42.86,15.789l165.8,154.513s108.844,103.76,41.733,200.753-179.9,62.031-224.454,25.94-31.582-28.195-31.582-28.195S519.295,488.432,549.749,481.666Z"/>
  <path id="_1" data-name="1" class="st2" d="M192.571,332.792c-58.652,32.143-42.861,135.9-15.791,184.964S270.4,624.336,326.792,596.7s47.372-134.212,18.047-179.325C318.9,355.349,251.222,300.649,192.571,332.792Z"/>
  <path id="_2" data-name="2" class="st2" d="M384.316,126.4C311,143.317,311,241.438,323.408,306.852c3.384,40.6,64.291,152.821,130.838,135.34s69.931-113.911,63.163-171.431S457.63,109.482,384.316,126.4Z"/>
  <path id="_3" data-name="3" class="st2" d="M699.743,126.4c73.315,16.918,73.315,115.039,60.908,180.453-3.384,40.6-64.291,152.821-130.838,135.34S559.882,328.281,566.65,270.761,626.429,109.482,699.743,126.4Z"/>
  <path id="_4" data-name="4" class="st2" d="M891.982,332.792c58.651,32.143,42.861,135.9,15.791,184.964S814.156,624.336,757.76,596.7s-47.372-134.212-18.046-179.325C765.656,355.349,833.331,300.649,891.982,332.792Z"/>
</svg>
