<svg xmlns="http://www.w3.org/2000/svg" width="1080" height="1080" viewBox="0 0 1080 1080">
  <defs>
    <style>
      .cls-1, .cls-2 {
        fill: #06c2b5;
      }

      .cls-2 {
        stroke: #b7ebde;
        stroke-width: 14px;
      }

      .cls-3 {
        fill: #fff;
        fill-rule: evenodd;
      }
    </style>
  </defs>
  <circle id="Elipse_1_copiar" data-name="Elipse 1 copiar" class="cls-1" cx="539.97" cy="536.92" r="519.97"/>
  <circle id="Elipse_1" data-name="Elipse 1" class="cls-2" cx="539.971" cy="536.921" r="492.909"/>
  <path id="Centro_meio" data-name="Centro meio" class="cls-3" d="M543.351,478.282c18.047,0.376,38.067-1.5,48.5,18.045s-34.5,40.978-48.5,41.73-40.511-16.542-47.372-37.218S525.3,477.906,543.351,478.282ZM520.793,850.466h59.779l-28.2-91.354"/>
  <path id="Centro_esq" data-name="Centro esq" class="cls-3" d="M535.456,480.538C505,473.771,492.6,496.327,492.6,496.327L326.792,650.84S217.948,754.6,285.059,851.594s179.9,62.03,224.455,25.939,31.581-28.2,31.581-28.2S565.91,487.305,535.456,480.538Z"/>
  <path id="Centro_dir" data-name="Centro dir" class="cls-3" d="M549.749,481.666c30.453-6.768,42.86,15.789,42.86,15.789l165.8,154.513s108.844,103.76,41.733,200.753-179.9,62.031-224.454,25.94-31.582-28.195-31.582-28.195S519.295,488.432,549.749,481.666Z"/>
  <path id="_1" data-name="1" class="cls-3" d="M192.571,332.792c-58.652,32.143-42.861,135.9-15.791,184.964S270.4,624.336,326.792,596.7s47.372-134.212,18.047-179.325C318.9,355.349,251.222,300.649,192.571,332.792Z"/>
  <path id="_2" data-name="2" class="cls-3" d="M384.316,126.4C311,143.317,311,241.438,323.408,306.852c3.384,40.6,64.291,152.821,130.838,135.34s69.931-113.911,63.163-171.431S457.63,109.482,384.316,126.4Z"/>
  <path id="_3" data-name="3" class="cls-3" d="M699.743,126.4c73.315,16.918,73.315,115.039,60.908,180.453-3.384,40.6-64.291,152.821-130.838,135.34S559.882,328.281,566.65,270.761,626.429,109.482,699.743,126.4Z"/>
  <path id="_4" data-name="4" class="cls-3" d="M891.982,332.792c58.651,32.143,42.861,135.9,15.791,184.964S814.156,624.336,757.76,596.7s-47.372-134.212-18.046-179.325C765.656,355.349,833.331,300.649,891.982,332.792Z"/>
</svg>
