<?xml version="1.0" encoding="utf-8"?>
<!-- Generator: Adobe Illustrator 19.0.0, SVG Export Plug-In . SVG Version: 6.00 Build 0)  -->
<svg version="1.1" id="Layer_1" xmlns="http://www.w3.org/2000/svg" xmlns:xlink="http://www.w3.org/1999/xlink" x="0px" y="0px"
	 viewBox="443 143.1 370.3 506.9" style="enable-background:new 443 143.1 370.3 506.9;" xml:space="preserve">
<style type="text/css">
	.st0{fill:#4A90E2;}
	.st1{fill:#B7CFEA;}
</style>
<g transform="translate(-233.7 -345.73)">
	<path class="st0" d="M826,845.9c-19.6-19.6-19.6-51.2,0-70.8c26.6-26.6,26.5-38.3,0-64.8c-26.5-26.5-37.3-26.5-63.8,0
		c-19.5,19.5-51.2,19.5-70.8,0c-12.1-12.1-17.2-29.5-13.5-46.2c2-9.5,6.7-18.2,13.6-25c26.6-26.6,26.5-38.3,0-64.8
		c-19.6-19.5-19.6-51.2-0.1-70.8c0,0,0,0,0,0c9.4-9.4,22.1-14.7,35.4-14.7c13.3,0,26,5.3,35.4,14.7c19.6,19.6,19.6,51.2,0,70.8
		c-26.6,26.6-26.5,38.3,0,64.8c26.5,26.5,37.3,26.5,63.8,0c19.5-19.5,51.2-19.5,70.8,0c12.1,12.1,17.2,29.5,13.5,46.2
		c-2,9.5-6.7,18.2-13.6,25c-26.6,26.6-26.5,38.3,0,64.8c19.6,19.5,19.6,51.2,0.1,70.8c0,0,0,0,0,0
		C877.2,865.5,845.5,865.5,826,845.9L826,845.9z"/>
	<path class="st1" d="M727,760.7c27.6,0,50,22.4,50,50s-22.4,50-50,50s-50-22.4-50-50S699.4,760.7,727,760.7z"/>
	<path class="st1" d="M862,490.7c27.6,0,50,22.4,50,50c0,27.6-22.4,50-50,50s-50-22.4-50-50C812,513.1,834.4,490.7,862,490.7z"/>
	<path class="st1" d="M997,490.7c27.6,0,50,22.4,50,50c0,27.6-22.4,50-50,50s-50-22.4-50-50C947,513.1,969.4,490.7,997,490.7z"/>
	<path class="st1" d="M997,625.7c27.6,0,50,22.4,50,50c0,27.6-22.4,50-50,50s-50-22.4-50-50C947,648.1,969.4,625.7,997,625.7z"/>
	<path class="st1" d="M997,760.7c27.6,0,50,22.4,50,50s-22.4,50-50,50s-50-22.4-50-50S969.4,760.7,997,760.7z"/>
	<path class="st1" d="M862,895.7c27.6,0,50,22.4,50,50s-22.4,50-50,50s-50-22.4-50-50S834.4,895.7,862,895.7z"/>
</g>
</svg>
