<?xml version="1.0" standalone="no"?>
<!DOCTYPE svg PUBLIC "-//W3C//DTD SVG 20010904//EN"
 "http://www.w3.org/TR/2001/REC-SVG-20010904/DTD/svg10.dtd">
<svg version="1.0" xmlns="http://www.w3.org/2000/svg"
 width="1000.000000pt" height="1000.000000pt" viewBox="0 0 1000.000000 1000.000000"
 preserveAspectRatio="xMidYMid meet">

<g transform="translate(0.000000,1000.000000) scale(0.100000,-0.100000)"
fill="#000000" stroke="none">
<path d="M3550 9486 c-132 -39 -246 -110 -351 -217 -232 -238 -385 -598 -451
-1064 -19 -136 -16 -530 6 -690 55 -405 173 -738 363 -1023 74 -112 245 -284
347 -350 374 -242 807 -127 1086 289 161 241 267 549 311 904 16 129 16 502 0
630 -67 535 -258 988 -535 1268 -188 190 -377 278 -596 276 -79 0 -124 -6
-180 -23z"/>
<path d="M6765 9166 c-311 -81 -598 -295 -863 -643 -350 -461 -560 -1101 -539
-1648 19 -497 226 -870 543 -980 282 -97 590 -21 919 229 343 261 674 769 819
1261 74 250 107 475 107 725 0 231 -27 385 -101 574 -98 250 -276 423 -500
485 -106 30 -263 28 -385 -3z"/>
<path d="M965 7930 c-75 -11 -134 -29 -190 -57 -265 -134 -427 -393 -495 -794
-23 -132 -28 -442 -10 -589 93 -753 514 -1481 1035 -1788 306 -180 628 -189
867 -24 196 136 347 420 400 753 20 130 17 507 -5 644 -96 578 -337 1084 -685
1439 -254 259 -450 373 -707 412 -97 15 -133 16 -210 4z"/>
<path d="M8810 6945 c-113 -25 -191 -54 -335 -125 -231 -115 -439 -281 -626
-499 -382 -447 -593 -904 -655 -1422 -46 -387 42 -724 241 -924 82 -82 169
-135 280 -172 71 -23 96 -26 220 -27 115 0 155 4 223 22 316 86 557 235 842
521 567 571 873 1444 719 2055 -28 113 -105 267 -176 351 -76 90 -186 165
-295 201 -72 24 -102 28 -228 30 -100 2 -165 -1 -210 -11z"/>
<path d="M4675 5820 c-177 -22 -400 -116 -555 -233 -114 -87 -231 -210 -440
-466 -248 -304 -371 -442 -560 -631 -175 -176 -328 -307 -447 -384 -76 -49
-330 -179 -520 -265 -262 -119 -420 -225 -578 -389 -198 -205 -307 -437 -385
-817 -35 -169 -35 -240 -1 -440 48 -279 107 -444 219 -615 215 -330 602 -573
1089 -684 206 -47 303 -57 673 -66 507 -13 785 -34 1275 -95 431 -55 1121
-165 1410 -226 126 -27 179 -32 327 -36 542 -15 1013 150 1300 456 217 231
329 521 330 856 0 192 -31 365 -103 571 -40 116 -146 333 -201 411 -24 34
-174 205 -334 380 -345 376 -397 436 -524 608 -213 288 -408 596 -710 1125
-89 157 -192 323 -229 370 -85 110 -276 307 -369 382 -176 140 -444 215 -667
188z"/>
</g>
</svg>
