<svg version="1" xmlns="http://www.w3.org/2000/svg" width="1365.333" height="1365.333" viewBox="0 0 1024.000000 1024.000000"><path d="M287.5 19.1c-78.2 6.8-151.7 48.8-198.7 113.4-22 30.2-39.3 69.3-46.3 104.7l-1.7 8.7-5.2 1.2c-13.5 3.1-25.5 12.8-31.8 25.7l-3.3 6.7v144l3.6 7.6c5.7 11.8 15.3 20.4 27.7 24.4l5.2 1.7v109.6l-5.2 1.7c-12.4 4-22 12.6-27.7 24.4l-3.6 7.6-.3 69.9C0 738.2 0 740.6 2 746.3c5.2 15.4 17.8 26.9 33.6 30.6l5.2 1.2 1.7 8.7c6.4 32.3 20.7 66.2 40.6 96.2 46.8 70.4 123.5 115.4 207.9 122 10.4.8 81.5 1 249 .8 210.9-.3 235.6-.5 245-2 62.5-9.7 112.5-34 154.9-75.3 45.7-44.4 72.7-97.4 82.3-161 1.9-13.3 1.9-497.7 0-511-3.9-25.5-12.1-54.2-21.6-75.2-31.1-69.1-89.8-123-160.8-147.8-14.4-5.1-34.1-10-50.4-12.7l-13.9-2.2-239-.2c-131.4-.1-243.5.2-249 .7zM758 117.4c39.3 6.6 71 20.9 99.7 44.9 37.9 31.9 62.7 79 68.2 129.9 1.5 13.5 1.5 426.1 0 439.6-5.5 50.9-30.3 98-68.2 129.9-28.4 23.8-60.6 38.4-99.7 44.9-9.8 1.7-25 1.8-214.5 2.2-217.5.3-229.5.1-251.2-4.3-51.5-10.5-96-40.3-125.1-83.6-15.5-23.1-25.9-50-30.9-79.8-1.7-10-1.8-23.9-1.8-229.1 0-242.2-.5-224.3 6.4-250.6C162.1 180.6 234.1 121.5 318 116c6.3-.4 105.6-.7 220.5-.6 194.8.2 209.7.3 219.5 2z"/><path d="M780.3 365c-6.8 1.3-14.3 4.3-20.6 8.4-6.2 4-15.4 13.3-87.2 88.4l-54.9 57.3-2.7-2.8c-1.5-1.5-31.6-33-66.8-69.8-45.6-47.7-66-68.4-70.8-71.7-20.6-14.3-49.3-13.1-68.5 2.8-2.5 2.2-31.8 32-64.9 66.4-33.2 34.4-73.3 75.9-89.1 92.2-15.8 16.4-30.4 32.2-32.3 35.2-13.1 20.5-11.7 48.8 3.4 66.9 19.3 23.2 51.9 28.2 76.3 11.7 4.9-3.3 25.3-23.8 74.3-74.5 37.2-38.5 68-70 68.4-70 .4 0 27 27.4 59.1 61 75.1 78.5 78.8 82.2 87 86.3 9.1 4.5 16.1 6.2 26.4 6.2 13.4 0 23.9-3.3 34.3-10.8 2.2-1.7 40.2-40.8 84.4-86.9 44.2-46.1 84.9-88.6 90.5-94.4 11.6-12.2 16.5-20 19.4-31.4 2.4-9.2 2.5-16.4.5-26-4.2-19.9-20.1-37.3-39.5-42.9-6.8-2-19.9-2.8-26.7-1.6z"/></svg>