<svg version="1" xmlns="http://www.w3.org/2000/svg" width="1365.333" height="1365.333" viewBox="0 0 1024.000000 1024.000000"><path d="M293.5 18.6c-29.8 2.6-56.1 8.5-81.9 18.6C126.2 70.7 62.5 145.6 42.9 235.5c-1.2 5.5-2.3 10.1-2.4 10.3-.1.1-2.7.9-5.9 1.7-15.8 4.1-27.5 14.9-32.6 30.2-2 5.7-2 8.1-1.8 76.4l.3 70.4 2.6 5.5c5.6 11.9 16.3 21.7 28 25.5l4.9 1.7v109.6l-4.9 1.7c-6.8 2.2-15.9 8.3-20.4 13.6-2.1 2.4-5.3 7.3-7 10.9l-3.2 6.5v145l3.2 6.7c5.8 12.3 17.4 22.1 30.1 25.4l6.8 1.7 2.3 11.1c3 14.5 11.5 40.2 18.1 54.4 36.8 79.8 106.9 136.9 191.1 155.6 29.6 6.5 8 6 269.9 6.4 168 .2 241.3 0 250.4-.8 36.6-3.1 68.9-12.4 101.9-29.3 71.2-36.3 122.9-101.4 142.1-178.7 7.6-30.5 6.9-5.7 7.3-279.5.3-243.6.3-246.1-1.7-260.5-8.5-59.7-34-112.2-75-154.4-15.9-16.4-27.9-26.4-45.5-38.1-35.6-23.7-68.1-36.2-114-43.8l-13-2.1-238.5-.2c-131.2 0-240.3.1-242.5.2zm462.9 98.9c82.2 10.8 149.3 73.1 166.1 154.2 1.4 6.4 2.9 17.1 3.5 23.7.8 8.5 1 75.9.8 225.1l-.4 213-2.2 11c-8.5 43.3-25.8 76.8-54.2 105.4-16.7 16.8-32.5 28.1-54.3 38.6-20.2 9.8-39.9 15.6-62.7 18.4-11.7 1.5-433.2 1.5-445 .1-36-4.5-72.8-19.8-99.9-41.7-7.8-6.2-23.2-21.5-29.6-29.3-24.4-29.8-39.5-67.2-43.5-107.9-1.4-14.1-1.4-418.1 0-432.2 4-40.7 19.1-78.1 43.5-107.9 6.4-7.8 21.8-23.1 29.6-29.3 26.6-21.5 63.7-37.1 98.5-41.6 3.8-.4 104-.9 222.6-1 187.2-.1 217.2.1 227.2 1.4z"/><path d="M436.2 365.1c-8.3 1.4-16.2 4.6-22.9 9.1-7.9 5.3-183.8 187.1-189.9 196.2-19.3 28.7-8.9 68 22 83 9 4.3 16.1 6 25.6 6 16.5 0 29-5.5 42.6-18.9 6.8-6.6 109.9-113.3 128.9-133.3l2.2-2.4 68.5 71.4c73.7 76.7 73.1 76.2 87.8 80.9 8.5 2.8 23 3 31.5.5 9.6-2.8 19-8.3 25.7-15 21.5-21.3 177-184.7 180-189.1 22.9-33.9 2.5-80.9-38.2-88.1-10.1-1.8-17.5-1.2-27.8 2.2-9.8 3.2-17.2 8.1-25.7 16.9-3.8 4-34.4 35.9-68 71l-61 63.7-4.5-5c-2.5-2.8-32.8-34.5-67.4-70.6-61-63.6-68-70.3-77.3-74.3-9.8-4.1-22.9-5.9-32.1-4.2z"/></svg>