<?xml version="1.0" standalone="no"?>
<!DOCTYPE svg PUBLIC "-//W3C//DTD SVG 20010904//EN"
 "http://www.w3.org/TR/2001/REC-SVG-20010904/DTD/svg10.dtd">
<svg version="1.0" xmlns="http://www.w3.org/2000/svg"
 width="520.000000pt" height="520.000000pt" viewBox="0 0 520.000000 520.000000"
 preserveAspectRatio="xMidYMid meet">
<metadata>
Created by potrace 1.11, written by Peter Selinger 2001-2013
</metadata>
<g transform="translate(0.000000,520.000000) scale(0.100000,-0.100000)"
fill="#000000" stroke="none">
<path d="M930 5184 c-231 -42 -430 -144 -588 -301 -165 -164 -274 -372 -317
-603 -20 -111 -13 -341 15 -450 125 -501 562 -842 1075 -841 187 1 347 40 510
124 107 56 188 119 336 261 428 410 659 466 986 239 110 -77 186 -145 368
-327 407 -409 495 -636 358 -925 -20 -41 -39 -79 -44 -85 -5 -6 -37 -49 -71
-96 -61 -82 -114 -142 -266 -299 -209 -216 -316 -480 -315 -776 1 -154 25
-283 78 -412 33 -83 102 -208 128 -235 7 -7 19 -22 27 -34 8 -12 35 -43 60
-70 196 -213 481 -342 770 -349 151 -3 259 11 379 51 97 33 171 67 252 119 88
57 101 67 190 156 152 152 243 318 295 544 28 118 29 323 3 445 -38 179 -112
340 -213 465 -50 61 -40 51 -161 176 -130 136 -204 228 -265 329 -66 110 -90
178 -97 275 -14 204 88 387 398 709 125 130 174 194 232 305 49 93 101 247
114 332 4 30 8 122 7 204 0 129 -4 164 -28 254 -95 367 -368 660 -721 775 -44
14 -93 28 -110 31 -16 3 -52 10 -80 15 -52 9 -302 7 -345 -4 -14 -3 -38 -8
-55 -12 -66 -12 -194 -59 -265 -97 -109 -57 -191 -118 -295 -221 -223 -219
-269 -260 -348 -315 -129 -88 -285 -120 -419 -86 -153 40 -367 182 -578 385
-218 209 -350 285 -584 336 -95 21 -320 26 -416 8z"/>
<path d="M1077 2204 c-1 -1 -29 -5 -62 -8 -262 -25 -493 -134 -676 -319 -208
-209 -317 -467 -323 -766 -1 -77 2 -114 19 -216 37 -226 179 -471 365 -629
154 -130 311 -206 525 -252 52 -11 287 -13 360 -3 145 20 306 83 450 176 77
51 223 191 277 268 186 265 246 555 182 890 -11 62 -57 182 -100 265 -170 328
-501 552 -864 585 -75 7 -150 11 -153 9z"/>
</g>
</svg>
