<?xml version="1.0" standalone="no"?>
<!DOCTYPE svg PUBLIC "-//W3C//DTD SVG 20010904//EN"
 "http://www.w3.org/TR/2001/REC-SVG-20010904/DTD/svg10.dtd">
<svg version="1.0" xmlns="http://www.w3.org/2000/svg"
 width="400.000000pt" height="400.000000pt" viewBox="0 0 400.000000 400.000000"
 preserveAspectRatio="xMidYMid meet">
<metadata>
Created by potrace 1.11, written by Peter Selinger 2001-2013
</metadata>
<g transform="translate(0.000000,400.000000) scale(0.100000,-0.100000)"
fill="#000000" stroke="none">
<path d="M167 3893 c-61 -21 -126 -85 -150 -148 -16 -45 -17 -151 -14 -1759 2
-1630 3 -1713 20 -1747 23 -47 79 -103 126 -126 34 -17 117 -18 1851 -18
l1815 0 43 23 c51 27 94 70 119 120 17 35 18 108 18 1762 0 1629 -1 1727 -18
1760 -26 52 -67 94 -117 121 l-45 24 -1800 2 c-1632 2 -1805 0 -1848 -14z"/>
</g>
</svg>
