<svg version="1" xmlns="http://www.w3.org/2000/svg" width="933.333" height="933.333" viewBox="0 0 700.000000 700.000000"><path d="M54 73.5V99H5v144h49v214H5v144h49v51h584V48H54v25.5zm254.5 193.2c13.1 13.7 37.9 39.2 55 56.8 17 17.6 33.8 34.9 37.2 38.5l6.2 6.5 8-8c4.4-4.4 31.8-32.8 61.1-63 29.2-30.3 53.4-55.1 53.8-55.3 1.1-.3 43.4 43.6 43 44.7-.2.4-32.5 34.1-71.8 74.7-88.9 92-93.2 96.4-94.1 96.4-.7 0-79-80.6-85-87.7-2.3-2.6-11.7-12.5-21-22l-16.8-17.2-61.3 63.5-61.3 63.5-21.7-22.3-21.6-22.3 9.1-9.5c5.1-5.2 41.6-43 81.2-83.9 39.6-40.9 72.6-75.2 73.3-76.2.7-1.1 1.6-1.9 2-1.9.4 0 11.5 11.1 24.7 24.7z"/></svg>