<?xml version="1.0" standalone="no"?>
<!DOCTYPE svg PUBLIC "-//W3C//DTD SVG 20010904//EN"
 "http://www.w3.org/TR/2001/REC-SVG-20010904/DTD/svg10.dtd">
<svg version="1.0" xmlns="http://www.w3.org/2000/svg"
 width="520.000000pt" height="520.000000pt" viewBox="0 0 520.000000 520.000000"
 preserveAspectRatio="xMidYMid meet">
<metadata>
Created by potrace 1.11, written by Peter Selinger 2001-2013
</metadata>
<g transform="translate(0.000000,520.000000) scale(0.100000,-0.100000)"
fill="#000000" stroke="none">
<path d="M2511 5070 c-293 -29 -568 -105 -829 -230 -265 -128 -464 -266 -668
-465 l-119 -115 -447 0 -448 0 2 -547 3 -548 162 -3 c90 -1 163 -6 163 -10 0
-4 -9 -54 -19 -112 -53 -290 -47 -640 15 -937 l7 -33 -167 0 -166 0 0 -545 0
-545 447 0 446 0 131 -128 c313 -305 676 -510 1091 -617 237 -61 319 -70 625
-70 238 0 292 3 400 22 519 91 975 327 1340 693 387 387 624 870 701 1430 20
141 17 506 -4 650 -79 522 -303 982 -659 1355 -386 405 -881 659 -1440 740
-128 19 -442 27 -567 15z m630 -2420 c3 0 178 172 387 383 l382 382 192 -192
193 -193 -575 -575 -575 -575 -295 293 c-162 160 -337 333 -388 382 l-92 90
-383 -382 -382 -382 -195 190 -195 189 579 576 578 577 382 -382 c209 -209
384 -381 387 -381z"/>
</g>
</svg>
