<?xml version="1.0" standalone="no"?>
<!DOCTYPE svg PUBLIC "-//W3C//DTD SVG 20010904//EN"
 "http://www.w3.org/TR/2001/REC-SVG-20010904/DTD/svg10.dtd">
<svg version="1.0" xmlns="http://www.w3.org/2000/svg"
 width="520.000000pt" height="520.000000pt" viewBox="0 0 520.000000 520.000000"
 preserveAspectRatio="xMidYMid meet">
<metadata>
Created by potrace 1.11, written by Peter Selinger 2001-2013
</metadata>
<g transform="translate(0.000000,520.000000) scale(0.100000,-0.100000)"
fill="#000000" stroke="none">
<path d="M988 5195 c-1 -1 -25 -6 -52 -9 -27 -4 -83 -16 -125 -28 -354 -97
-637 -367 -754 -718 -46 -139 -52 -182 -51 -370 1 -132 5 -169 27 -253 65
-244 210 -460 412 -610 134 -100 331 -185 466 -202 30 -4 57 -9 62 -12 11 -7
226 -5 282 2 174 24 380 107 513 207 38 29 115 96 169 148 163 155 232 213
338 282 244 160 442 151 693 -30 113 -81 187 -146 352 -312 367 -366 475 -587
405 -828 -45 -152 -150 -298 -409 -566 -169 -175 -259 -339 -311 -564 -13 -53
-29 -202 -26 -237 1 -5 3 -40 5 -76 2 -37 7 -75 10 -85 3 -11 8 -36 12 -58 9
-58 52 -183 90 -259 78 -157 191 -290 339 -402 119 -89 336 -180 481 -201 69
-9 268 -10 337 -1 223 30 466 154 630 320 139 142 227 298 283 499 47 173 41
431 -16 606 -23 70 -105 245 -124 265 -6 7 -24 31 -40 55 -16 23 -74 88 -128
145 -126 128 -247 270 -295 344 -21 32 -41 60 -44 63 -4 4 -17 29 -24 50 -1 3
-10 23 -19 44 -10 22 -19 47 -21 57 -2 9 -7 32 -12 50 -13 49 -6 209 9 209 4
0 7 3 6 8 -9 33 94 223 168 309 11 11 35 41 54 64 19 24 81 91 136 149 148
153 187 202 241 298 30 53 104 227 101 235 -1 1 7 36 18 77 29 115 27 373 -5
494 -47 180 -130 338 -249 475 -47 53 -84 87 -189 171 -42 34 -194 111 -274
138 -139 47 -232 61 -394 57 -77 -2 -151 -6 -165 -9 -14 -3 -38 -9 -54 -12
-16 -2 -32 -7 -36 -9 -3 -2 -17 -6 -31 -8 -35 -7 -156 -56 -219 -90 -99 -53
-182 -119 -330 -263 -169 -165 -235 -223 -309 -271 -50 -32 -131 -69 -176 -80
-50 -12 -187 -11 -236 2 -153 40 -379 194 -606 411 -112 108 -130 123 -214
174 -113 69 -262 124 -393 147 -35 6 -302 13 -308 8z"/>
<path d="M1077 2204 c-1 -1 -33 -4 -72 -8 -689 -64 -1146 -740 -953 -1411 45
-156 156 -343 273 -460 66 -67 188 -155 270 -197 77 -39 197 -90 208 -87 1 1
20 -4 42 -9 142 -37 351 -40 519 -7 16 3 33 8 38 11 4 3 16 7 25 9 83 16 255
101 348 171 206 153 352 369 415 612 6 24 13 57 15 75 3 18 7 43 10 57 12 55
6 275 -9 345 -54 244 -163 440 -336 602 -51 49 -183 143 -199 143 -6 0 -11 3
-11 8 0 17 -179 87 -284 112 -72 17 -135 25 -259 34 -20 1 -38 2 -40 0z"/>
</g>
</svg>
