<svg version="1" xmlns="http://www.w3.org/2000/svg" width="933.333" height="933.333" viewBox="0 0 700.000000 700.000000"><path d="M330.5 35.6c-21.3 2.1-27.7 2.9-39 5-81.6 14.9-156.2 63.9-202.4 132.8-28.3 42.1-45 86.7-51.7 138.1-2.4 18.2-2.4 59.1-.1 77C45.2 447.9 66 497.8 102.4 545c10.3 13.4 39 42.1 52.6 52.6 36.5 28.3 75.7 47.4 118.3 57.9 96.7 23.7 195.7 2.2 273.8-59.6 13.5-10.7 40.2-37.5 50.6-50.9 42.2-54.6 64.6-116.3 67-185 3.3-95.2-36.8-186.4-109.2-248.9C508.4 70.4 452 45.5 388.6 37.4c-11.5-1.4-49.6-2.6-58.1-1.8zm-22.1 207.9c38.9 5.2 72.9 22.5 100.6 51.1 18.3 19 32 42.3 32 54.4 0 3.2-4 7.2-9.5 9.6-5.3 2.3-25.2 3.1-33.8 1.4-17.2-3.3-38.8-12.9-68.2-30.1-8.8-5.1-19.8-11.3-24.5-13.7-7.7-4-8.9-4.3-13.5-3.7-17 2.1-45.3 25.3-72.8 59.5-13.1 16.4-18.4 20-37.6 25.6-17.1 5-31.7 2.9-35.5-5-2.4-5-2-9 2.3-25.8 9.7-37.9 25.6-66.7 49.3-89.4 19.4-18.6 44.5-31.6 66.3-34.3 11.2-1.4 33.1-1.2 44.9.4zM549.5 303c8.5 4.1 9.4 10.7 4.1 31.4-13.7 53.1-42.1 92.4-81.5 112.5-20.3 10.3-32.4 12.6-61.6 11.8-28.2-.8-47.6-5.6-72-17.8-27.8-13.8-53.7-37.8-68.8-63.5-5.7-9.8-10.1-22.4-9.2-26.5 1.4-6.3 13.2-10.9 28.2-10.9 21.1 0 42.7 8 80.8 30 9.9 5.8 21.8 12.4 26.4 14.8 7.8 4.1 8.8 4.4 13.9 3.9 17.7-1.8 45.9-25.3 76-63.2 5.6-7.1 9.5-10.9 13.3-13.2 16.3-9.7 40.4-14.2 50.4-9.3z"/></svg>