<svg xmlns="http://www.w3.org/2000/svg" width="3000" height="700"><style><![CDATA[.C{fill:#4dba4a}.E{fill:#4eb748}.F{fill:#4cb749}]]></style><path d="M0 0h3000v700H0z" fill="#4cbf4b"/><path d="M104 353c-2.2-11.24-10.9-10-10.48-17.64a5.35 5.35 0 0 1 1-2.62c.33-.56.18-.8-1.4-1.67-1.82-1-3.46.7-5 .62-.48 0-1-.3-1.45.6-1 2.27.48 2.62.83 4 5.3 20.8-9.07 42.17-41 38.15-3.52-.44-7.12 1.36-8.24 1.5-.85.1-1.46 1.35-1.52 2.15s.78 1.25 1 1.86a12.53 12.53 0 0 0 4.84 6.19C76.42 407.3 107.1 369 104 353zM215.2 99.5c-3.65-10.86-12.1-8.46-12.7-16.12a5.49 5.49 0 0 1 .64-2.73c.26-.6.08-.8-1.6-1.47-1.94-.77-3.34 1.15-4.84 1.26-.47 0-1.07-.17-1.36.78-.73 2.4.83 2.54 1.34 3.83 8 19.93-3.47 43-35.67 43.2-3.55 0-6.88 2.28-8 2.55-.82.2-1.27 1.53-1.2 2.33s.93 1.14 1.2 1.7a12.56 12.56 0 0 0 5.6 5.51c36.4 16.56 61.8-25.44 56.6-40.84zm202.9 3.5c3.65-10.86 12.1-8.46 12.7-16.12a5.39 5.39 0 0 0-.65-2.73c-.25-.6-.07-.8 1.6-1.47 1.93-.77 3.34 1.16 4.83 1.27.48 0 1.07-.17 1.36.77.73 2.4-.82 2.54-1.34 3.83-8 19.93 3.47 43 35.67 43.2 3.56 0 6.88 2.28 8 2.55.83.2 1.27 1.53 1.22 2.33s-.94 1.14-1.2 1.7a12.53 12.53 0 0 1-5.61 5.51c-36.36 16.58-61.76-25.4-56.57-40.85zm194.24 170.28c-8.36-7.84-14.67-1.73-18.82-8.2a5.38 5.38 0 0 1-.72-2.71c-.06-.65-.32-.75-2.1-.54-2.07.23-2.4 2.6-3.66 3.4-.4.26-1 .36-.83 1.33.48 2.45 1.92 1.84 3 2.74 16.45 13.8 17.28 39.52-11 54.93-3.12 1.7-5 5.26-5.83 6-.63.57-.4 1.95 0 2.63s1.37.56 1.88.94a12.59 12.59 0 0 0 7.54 2.2c39.9-2.6 42.4-51.6 30.54-62.73zm28.42 99.22c8.36-7.84 14.66-1.73 18.82-8.2a5.45 5.45 0 0 0 .72-2.7c.05-.65.3-.75 2.1-.55 2.07.24 2.4 2.6 3.66 3.4.4.25 1 .35.83 1.32-.48 2.45-1.92 1.85-3 2.75-16.45 13.8-17.28 39.5 11 54.92 3.12 1.7 5 5.27 5.82 6 .63.57.4 1.95 0 2.63s-1.36.56-1.88.93a12.48 12.48 0 0 1-7.54 2.2c-39.88-2.58-42.38-51.6-30.53-62.7zm-170.28-5.74c8.36-7.84 14.66-1.73 18.82-8.2a5.38 5.38 0 0 0 .72-2.71c.06-.64.32-.75 2.1-.54 2.07.24 2.4 2.6 3.66 3.4.4.26 1 .36.83 1.33-.48 2.45-1.92 1.85-3 2.74-16.45 13.8-17.28 39.52 11 54.93 3.12 1.7 5 5.27 5.82 6 .64.57.4 1.95 0 2.63s-1.37.57-1.88.94a12.59 12.59 0 0 1-7.54 2.2c-39.88-2.6-42.38-51.6-30.53-62.72zm110.32 222c8.36-7.84 14.67-1.73 18.82-8.2a5.38 5.38 0 0 0 .72-2.71c.06-.65.32-.75 2.1-.55 2.07.24 2.4 2.6 3.66 3.4.4.26 1 .35.83 1.33-.5 2.45-1.93 1.84-3 2.74-16.45 13.8-17.3 39.5 11 54.93 3.12 1.7 5 5.26 5.82 6 .63.57.4 1.95 0 2.63s-1.36.56-1.88.94a12.57 12.57 0 0 1-7.54 2.2c-39.88-2.6-42.34-51.6-30.54-62.73zm324.95-225.1c-7.47-8.7-14.4-3.3-17.84-10.16a5.44 5.44 0 0 1-.42-2.77c0-.65-.24-.78-2-.77-2.08 0-2.65 2.33-4 3-.43.22-1.05.25-1 1.24.22 2.48 1.72 2 2.7 3 14.87 15.47 13 41.14-16.8 53.44-3.3 1.35-5.52 4.7-6.44 5.36-.7.5-.6 1.9-.25 2.62s1.3.7 1.77 1.13a12.55 12.55 0 0 0 7.26 3c39.9 1.7 47.63-46.75 37.04-59.1zm97.1-133.88c2.84-11.1 11.45-9.33 11.48-17a5.42 5.42 0 0 0-.85-2.67c-.3-.58-.13-.8 1.5-1.6 1.87-.9 3.4.9 4.9.9.48 0 1-.25 1.4.68.9 2.32-.63 2.6-1 3.9-6.47 20.47 6.63 42.62 38.76 40.45 3.54-.24 7 1.77 8.14 1.95.84.15 1.4 1.44 1.4 2.24s-.85 1.2-1.08 1.8a12.57 12.57 0 0 1-5.18 5.9c-35.08 19.17-63.5-20.84-59.47-36.58zm-4.12 179.86c8.5-7.7 14.7-1.48 19-7.88a5.45 5.45 0 0 0 .76-2.69c.07-.65.33-.75 2.12-.5 2.06.27 2.35 2.64 3.6 3.46.4.27 1 .38.8 1.35-.53 2.44-2 1.8-3 2.7-16.68 13.5-17.94 39.22 10.07 55.1 3.1 1.75 4.9 5.35 5.72 6.12.62.58.36 2-.07 2.63s-1.38.54-1.9.9a12.52 12.52 0 0 1-7.57 2.08c-39.9-3.28-41.57-52.33-29.54-63.25zm-170.4 131.1c8.5-7.7 14.7-1.48 19-7.88a5.45 5.45 0 0 0 .76-2.69c.07-.65.33-.75 2.12-.5 2.06.27 2.35 2.64 3.6 3.46.4.27 1 .38.8 1.35-.52 2.44-1.95 1.8-3 2.7-16.68 13.5-17.94 39.22 10.07 55.1 3.1 1.75 4.9 5.35 5.72 6.12.62.58.36 2-.07 2.63s-1.38.54-1.9.9a12.53 12.53 0 0 1-7.58 2.08c-39.84-3.28-41.55-52.33-29.52-63.25zm519.46 58.72c8.5-7.7 14.7-1.48 19-7.88a5.45 5.45 0 0 0 .76-2.69c.07-.65.33-.75 2.1-.52 2.07.28 2.36 2.65 3.6 3.47.4.26 1 .37.8 1.34-.52 2.44-2 1.82-3 2.7-16.68 13.52-17.94 39.22 10.07 55.1 3.1 1.75 4.9 5.35 5.72 6.12.62.58.36 1.95-.07 2.63s-1.38.54-1.9.9a12.51 12.51 0 0 1-7.58 2.07c-39.87-3.27-41.55-52.32-29.52-63.24zm-317.15-539.7c-3.66-10.86-12.1-8.46-12.7-16.12a5.33 5.33 0 0 1 .65-2.72c.26-.6.07-.82-1.6-1.48-1.93-.77-3.34 1.16-4.83 1.27-.48 0-1.07-.17-1.36.78-.73 2.38.82 2.53 1.34 3.83 8 19.93-3.47 43-35.67 43.2-3.55 0-6.88 2.28-8 2.55-.83.2-1.27 1.53-1.22 2.33s.94 1.14 1.22 1.72a12.53 12.53 0 0 0 5.6 5.5c36.36 16.55 61.76-25.44 56.58-40.85zM1137.8 220.2c9.35-6.62 14.76.3 19.76-5.55a5.36 5.36 0 0 0 1.08-2.58c.15-.63.42-.7 2.16-.25 2 .52 2 2.9 3.16 3.87.36.3 1 .5.64 1.43-.8 2.36-2.16 1.57-3.34 2.3-18.17 11.4-22.52 36.78 3.38 55.9 2.86 2.12 4.22 5.9 4.95 6.77.55.65.12 2-.4 2.6s-1.43.37-2 .67a12.57 12.57 0 0 1-7.77 1.15c-39.1-8.04-34.9-56.93-21.63-66.33zm253.1-127.85c-3.66-10.86-12.1-8.46-12.7-16.13a5.49 5.49 0 0 1 .65-2.72c.26-.6.08-.8-1.6-1.48-1.93-.77-3.34 1.16-4.83 1.27-.48 0-1.07-.17-1.36.78-.73 2.4.82 2.54 1.34 3.83 8 19.93-3.47 43-35.67 43.2-3.55 0-6.88 2.28-8 2.55-.82.2-1.27 1.53-1.22 2.33s.94 1.14 1.22 1.7a12.51 12.51 0 0 0 5.6 5.51c36.37 16.55 61.76-25.45 56.58-40.85zm-50.35 217.05c-3.65-10.86-12.1-8.46-12.7-16.12a5.33 5.33 0 0 1 .65-2.72c.25-.6.07-.82-1.6-1.48-1.94-.77-3.34 1.16-4.84 1.27-.47 0-1.06-.17-1.36.78-.73 2.38.83 2.53 1.34 3.83 8 19.93-3.47 43-35.66 43.2-3.56 0-6.9 2.28-8 2.55-.83.2-1.28 1.53-1.22 2.33s.93 1.14 1.2 1.72a12.58 12.58 0 0 0 5.6 5.5c36.37 16.55 61.76-25.44 56.58-40.85zM1150.62 524c-3.65-10.87-12.1-8.46-12.7-16.13a5.36 5.36 0 0 1 .65-2.72c.25-.6.07-.8-1.6-1.48-1.93-.77-3.34 1.16-4.83 1.27-.48 0-1.07-.17-1.36.78-.74 2.38.82 2.53 1.34 3.83 8 19.93-3.47 43-35.67 43.2-3.56 0-6.88 2.28-8 2.55-.83.2-1.27 1.53-1.22 2.33s.93 1.15 1.2 1.72a12.53 12.53 0 0 0 5.6 5.5c36.37 16.55 61.76-25.45 56.58-40.84zm232.9-62.77c-3.66-10.87-12.1-8.47-12.7-16.13a5.45 5.45 0 0 1 .64-2.72c.26-.6.08-.8-1.6-1.48-1.94-.77-3.34 1.16-4.84 1.27-.47 0-1.07-.17-1.36.78-.73 2.38.82 2.53 1.34 3.83 8 19.93-3.47 43-35.67 43.2-3.55 0-6.88 2.28-8 2.55-.82.2-1.27 1.53-1.22 2.33s.94 1.14 1.22 1.72a12.48 12.48 0 0 0 5.6 5.5c36.37 16.55 61.76-25.44 56.58-40.84zM1533 216.7c5.24-10.2 13.23-6.56 15-14.05a5.29 5.29 0 0 0-.23-2.78c-.16-.63 0-.82 1.8-1.23 2-.47 3.13 1.65 4.6 2 .47.1 1.08 0 1.23 1 .37 2.47-1.2 2.4-1.9 3.6-10.85 18.52-3 43 28.82 48 3.5.55 6.46 3.28 7.5 3.7.8.33 1 1.7.86 2.5s-1.1 1-1.45 1.5a12.55 12.55 0 0 1-6.37 4.61c-38.4 10.92-57.24-34.4-49.85-48.85zm304.7 290.8c5.23-10.2 13.23-6.56 15-14a5.44 5.44 0 0 0-.24-2.79c-.16-.63 0-.82 1.8-1.22 2-.48 3.13 1.64 4.6 2 .47.1 1.1 0 1.23 1 .37 2.47-1.2 2.4-1.9 3.6-10.86 18.52-3 43 28.8 48 3.5.55 6.46 3.28 7.5 3.7.78.33 1 1.7.86 2.5s-1.1 1-1.46 1.52a12.61 12.61 0 0 1-6.36 4.6c-38.45 10.88-57.28-34.4-49.85-48.9zM1712.05 89.78c-9.2-6.84-14.76 0-19.63-6a5.37 5.37 0 0 1-1-2.61c-.13-.64-.4-.7-2.16-.3-2 .47-2.08 2.86-3.24 3.8-.37.3-1 .47-.68 1.4.77 2.38 2.13 1.62 3.3 2.38 17.92 11.82 21.7 37.28-4.63 55.83-2.9 2-4.35 5.8-5.1 6.65-.56.64-.17 2 .33 2.6s1.42.4 2 .7a12.5 12.5 0 0 0 7.74 1.33c39.25-7.15 36.13-56.12 23.08-65.8zm83.83 252.7c-9.2-6.83-14.77 0-19.64-6a5.4 5.4 0 0 1-1-2.6c-.13-.64-.4-.7-2.16-.3-2 .47-2.08 2.85-3.24 3.8-.37.3-1 .47-.67 1.4.76 2.38 2.12 1.62 3.28 2.38 17.92 11.82 21.7 37.28-4.63 55.83-2.9 2.05-4.35 5.8-5.1 6.65-.56.64-.17 2 .33 2.6s1.42.4 2 .7a12.41 12.41 0 0 0 7.74 1.32c39.2-7.14 36.13-56.12 23.1-65.8zM2013.1 587.3c-9.2-6.84-14.77 0-19.63-6a5.39 5.39 0 0 1-1-2.61c-.13-.63-.4-.7-2.15-.3-2 .47-2.08 2.86-3.25 3.8-.37.3-1 .47-.67 1.42.76 2.37 2.12 1.6 3.3 2.38 17.9 11.82 21.68 37.28-4.64 55.82-2.9 2.05-4.35 5.8-5.1 6.65-.57.64-.17 2 .32 2.6s1.42.4 2 .72a12.56 12.56 0 0 0 7.74 1.32c39.25-7.1 36.13-56.1 23.08-65.8zm102.8-310.46c-3.65-10.86-12.1-8.46-12.7-16.13a5.48 5.48 0 0 1 .64-2.72c.26-.6.08-.8-1.6-1.48-1.94-.77-3.34 1.16-4.84 1.27-.47 0-1.07-.17-1.36.78-.73 2.4.82 2.54 1.34 3.83 8 19.93-3.47 43-35.67 43.2-3.55 0-6.88 2.28-8 2.55-.82.2-1.27 1.53-1.22 2.33s.94 1.14 1.22 1.7a12.56 12.56 0 0 0 5.6 5.51c36.37 16.55 61.76-25.45 56.58-40.85zm338-208.54c-3.66-10.86-12.1-8.46-12.7-16.12a5.32 5.32 0 0 1 .64-2.72c.26-.6.08-.82-1.6-1.48-1.94-.77-3.34 1.16-4.84 1.27-.47 0-1.07-.17-1.36.77-.73 2.4.82 2.54 1.34 3.83 8 19.94-3.47 43-35.67 43.2-3.55 0-6.88 2.28-8 2.55-.82.2-1.27 1.53-1.22 2.33s.94 1.14 1.22 1.7a12.51 12.51 0 0 0 5.6 5.51c36.37 16.55 61.76-25.44 56.58-40.85zm207.4 152.63c-3.66-10.86-12.1-8.46-12.7-16.12a5.44 5.44 0 0 1 .65-2.72c.26-.6.08-.82-1.6-1.48-1.93-.77-3.33 1.16-4.83 1.27-.48 0-1.07-.17-1.36.77-.73 2.4.82 2.54 1.34 3.83 8 19.94-3.47 43-35.67 43.2-3.55 0-6.88 2.28-8 2.55-.82.2-1.27 1.53-1.22 2.33s.94 1.14 1.22 1.72a12.53 12.53 0 0 0 5.6 5.5c36.37 16.55 61.76-25.44 56.58-40.85zm290.03-145.67c-3.66-10.86-12.1-8.46-12.7-16.12a5.38 5.38 0 0 1 .64-2.73c.26-.6.08-.8-1.6-1.47-1.94-.77-3.34 1.16-4.84 1.27-.48 0-1.07-.17-1.36.77-.73 2.4.82 2.54 1.34 3.83 8 19.93-3.47 43-35.67 43.2-3.55 0-6.88 2.28-8 2.55-.82.2-1.27 1.53-1.22 2.33s.94 1.14 1.22 1.7a12.51 12.51 0 0 0 5.6 5.51c36.37 16.55 61.76-25.44 56.58-40.85zM2387.5 469c-3.65-10.87-12.1-8.47-12.7-16.13a5.36 5.36 0 0 1 .65-2.72c.25-.6.07-.8-1.6-1.48-1.93-.77-3.34 1.16-4.83 1.27-.48 0-1.07-.17-1.36.78-.73 2.38.82 2.53 1.34 3.83 8 19.93-3.47 43-35.67 43.2-3.56 0-6.88 2.28-8 2.55-.83.2-1.27 1.53-1.22 2.33s.93 1.14 1.2 1.72a12.58 12.58 0 0 0 5.6 5.5c36.37 16.52 61.77-25.47 56.58-40.84zm-406.34-72.58c8.3-7.9 14.65-1.83 18.76-8.33a5.37 5.37 0 0 0 .7-2.71c.05-.65.3-.75 2.1-.56 2.07.22 2.42 2.6 3.7 3.38.4.25 1 .35.84 1.32-.47 2.46-1.92 1.86-3 2.77-16.35 13.9-17 39.63 11.38 54.85 3.13 1.67 5 5.22 5.87 6 .63.56.4 1.94 0 2.63s-1.37.57-1.88.95a12.55 12.55 0 0 1-7.52 2.25c-39.86-2.35-42.7-51.35-30.94-62.55zm325.62 191.08c8.3-7.9 14.65-1.83 18.76-8.33a5.37 5.37 0 0 0 .7-2.71c.05-.64.3-.75 2.1-.56 2.07.23 2.4 2.6 3.68 3.38.4.25 1 .35.84 1.32-.46 2.46-1.9 1.86-3 2.77-16.35 13.9-17 39.63 11.38 54.85 3.13 1.68 5 5.23 5.86 6 .64.56.4 1.95 0 2.63s-1.36.57-1.87.95a12.55 12.55 0 0 1-7.53 2.25c-39.85-2.35-42.7-51.34-30.92-62.55zM2589.82 55c8.3-7.9 14.66-1.84 18.77-8.33a5.5 5.5 0 0 0 .7-2.71c.05-.65.3-.76 2.1-.56 2.07.22 2.4 2.58 3.68 3.37.4.26 1 .35.84 1.33-.47 2.45-1.9 1.86-3 2.76-16.35 13.9-17 39.64 11.37 54.85 3.14 1.68 5 5.23 5.87 6 .64.57.4 1.95 0 2.63s-1.36.57-1.87 1a12.55 12.55 0 0 1-7.53 2.25c-39.85-2.44-42.7-51.43-30.93-62.6zm140.1 315.78c8.3-7.9 14.65-1.84 18.76-8.33a5.37 5.37 0 0 0 .7-2.71c.06-.65.32-.76 2.1-.56 2.07.22 2.42 2.58 3.7 3.38.4.25 1 .34.84 1.32-.47 2.45-1.92 1.86-3 2.76-16.35 13.9-17 39.64 11.38 54.85 3.13 1.68 5 5.23 5.87 6 .63.57.4 1.95 0 2.63s-1.36.57-1.88.95a12.55 12.55 0 0 1-7.52 2.25c-39.86-2.32-42.7-51.32-30.94-62.54zm102.55 270.94c-.17-11.46 8.6-12 6.6-19.44a5.46 5.46 0 0 0-1.52-2.35c-.44-.48-.34-.74 1-1.93 1.56-1.37 3.53 0 5-.4.46-.13 1-.52 1.54.28 1.48 2 .07 2.67 0 4.06-.87 21.44 17.6 39.38 48 28.85 3.36-1.16 7.25-.14 8.37-.25.85-.1 1.7 1 1.93 1.8s-.5 1.4-.58 2a12.54 12.54 0 0 1-3.45 7.06c-28.73 27.73-66.66-3.38-66.9-19.66zm94-429.36c8.3-7.9 14.66-1.83 18.77-8.33a5.47 5.47 0 0 0 .7-2.71c.05-.65.3-.75 2.1-.56 2.07.22 2.4 2.58 3.68 3.38.4.25 1 .35.84 1.32-.47 2.45-1.9 1.86-3 2.76-16.35 13.9-17 39.64 11.37 54.85 3.14 1.68 5 5.23 5.87 6 .63.57.4 1.95 0 2.63s-1.36.58-1.88.95a12.48 12.48 0 0 1-7.52 2.26c-39.85-2.35-42.7-51.35-30.93-62.55zM1929 72.35c3.66-10.86 12.1-8.46 12.7-16.12a5.44 5.44 0 0 0-.65-2.72c-.26-.6-.08-.82 1.6-1.48 1.93-.77 3.34 1.16 4.83 1.27.48 0 1.07-.17 1.36.77.73 2.4-.82 2.54-1.34 3.84-8 19.93 3.47 43 35.67 43.2 3.55 0 6.88 2.28 8 2.55.82.2 1.27 1.53 1.22 2.33s-.94 1.14-1.22 1.72a12.53 12.53 0 0 1-5.6 5.5c-36.34 16.55-61.73-25.44-56.58-40.85z" opacity=".5" class="C"/><path class="C" d="M152.9 512.12c-3.23-16.48-16-14.6-15.36-25.86a8 8 0 0 1 1.46-3.83c.48-.82.26-1.16-2-2.45-2.66-1.5-5.07 1-7.27.92-.7 0-1.52-.46-2.12.87-1.52 3.32.7 3.84 1.2 5.82 7.75 30.48-13.28 61.78-60.1 55.9-5.17-.65-10.44 2-12.08 2.17-1.24.14-2.15 2-2.22 3.15-.07 1 1.14 1.84 1.43 2.73a18.48 18.48 0 0 0 7.08 9.07c49.6 31 94.53-25.13 89.96-48.5zM253.36 64.24c10.34-13.23 20.85-5.8 25.4-16.1a7.93 7.93 0 0 0 .43-4.08c-.06-1 .3-1.16 2.93-1.26 3.05-.12 4.05 3.23 6.06 4.1.64.28 1.56.28 1.5 1.73-.15 3.66-2.37 3.1-3.72 4.64-20.72 23.66-16.15 61.1 28.24 77.07 4.9 1.77 8.4 6.5 9.8 7.42 1 .68 1 2.73.55 3.8-.4.92-1.85 1.12-2.52 1.78a18.28 18.28 0 0 1-10.42 4.87c-58.3 5.17-72.92-65.24-58.25-84zm-132.3-1.32c-13.13-10.46-21.62-.8-28.45-9.74a7.85 7.85 0 0 1-1.37-3.87c-.16-.94-.55-1.06-3.14-.55-3 .6-3.2 4.1-4.94 5.4-.56.42-1.45.64-1.06 2 1 3.52 3 2.46 4.7 3.65 25.65 18.2 29.9 55.67-9.56 81.52-4.35 2.85-6.65 8.28-7.8 9.48-.86.9-.35 2.9.35 3.84s2.06.66 2.86 1.15a18.44 18.44 0 0 0 11.27 2.32c57.9-8.5 55.76-80.37 37.13-95.2zm412.5 426.16c-13.14-10.46-21.62-.8-28.46-9.74a8.05 8.05 0 0 1-1.37-3.87c-.16-.94-.55-1.06-3.14-.55-3 .6-3.2 4.1-4.94 5.4-.56.42-1.45.64-1.05 2 1 3.52 3 2.47 4.7 3.65 25.65 18.2 29.9 55.67-9.55 81.52-4.36 2.85-6.66 8.28-7.8 9.48-.85.9-.34 2.9.36 3.84s2.06.66 2.85 1.15a18.48 18.48 0 0 0 11.28 2.32c57.9-8.5 55.75-80.37 37.13-95.2zM613.2 145.8c5.35-15.92 17.73-12.4 18.6-23.63a7.86 7.86 0 0 0-.95-4c-.37-.87-.1-1.2 2.34-2.16 2.84-1.13 4.9 1.7 7.1 1.86.7 0 1.56-.25 2 1.14 1.07 3.5-1.2 3.7-2 5.6-11.68 29.2 5.08 63 52.26 63.3 5.2 0 10.08 3.34 11.7 3.74 1.2.3 1.87 2.24 1.8 3.4-.07 1-1.37 1.67-1.78 2.5a18.35 18.35 0 0 1-8.21 8.07c-53.23 24.26-90.43-37.27-82.84-59.84zM829.58 360c-12.25-11.5-21.5-2.53-27.58-12a7.94 7.94 0 0 1-1-4c-.08-.95-.47-1.1-3.08-.8-3 .34-3.5 3.8-5.37 5-.6.38-1.5.53-1.2 1.95.7 3.6 2.82 2.7 4.38 4 24.1 20.2 25.32 57.9-16.1 80.48-4.57 2.5-7.3 7.72-8.54 8.83-.92.83-.58 2.86.05 3.85s2 .83 2.75 1.37a18.41 18.41 0 0 0 11 3.23c58.4-3.8 62.12-75.63 44.7-91.9zm109.86 180.62c12.25-11.5 21.5-2.54 27.58-12a7.92 7.92 0 0 0 1.05-4c.1-.95.47-1.1 3.1-.8 3 .35 3.5 3.8 5.36 5 .6.38 1.5.52 1.2 1.95-.7 3.58-2.82 2.7-4.38 4-24.1 20.2-25.32 57.9 16.1 80.5 4.58 2.5 7.3 7.7 8.54 8.82.92.84.58 2.86 0 3.86-.53.84-2 .82-2.76 1.37a18.39 18.39 0 0 1-11.05 3.22c-58.43-3.8-62.1-75.62-44.74-91.9zM1188.07 107c-5.36-15.9-17.73-12.4-18.6-23.62a7.93 7.93 0 0 1 .94-4c.38-.88.1-1.2-2.34-2.17-2.83-1.13-4.9 1.7-7.08 1.86-.7 0-1.57-.25-2 1.14-1.07 3.5 1.2 3.72 2 5.6 11.67 29.2-5.08 63-52.26 63.3-5.2 0-10.1 3.34-11.7 3.74-1.2.3-1.86 2.25-1.78 3.42.06 1 1.37 1.67 1.78 2.5a18.35 18.35 0 0 0 8.2 8.06c53.23 24.23 90.44-37.3 82.85-59.84zm81.03 420.68c-10.94-12.74-21.1-4.82-26.13-14.9a8 8 0 0 1-.62-4c0-1-.35-1.14-3-1.13-3.05 0-3.9 3.42-5.87 4.4-.62.3-1.54.36-1.42 1.8.33 3.65 2.52 3 3.93 4.47 21.8 22.67 19 60.28-24.63 78.3-4.8 2-8.1 6.88-9.43 7.86-1 .73-.88 2.78-.37 3.83s1.9 1 2.6 1.66a18.35 18.35 0 0 0 10.63 4.39c58.5 2.4 69.83-68.6 54.3-86.67zM1393.8 343c12.44-11.28 21.53-2.17 27.77-11.55a7.78 7.78 0 0 0 1.12-3.94c.1-1 .5-1.1 3.1-.75 3 .4 3.45 3.87 5.28 5.08.58.38 1.5.54 1.18 2-.77 3.58-2.86 2.66-4.45 4-24.43 19.8-26.3 57.46 14.76 80.74 4.53 2.57 7.17 7.83 8.38 9 .9.86.53 2.87-.1 3.86s-2 .8-2.77 1.32a18.35 18.35 0 0 1-11.1 3c-58.33-4.92-60.8-76.76-43.16-92.76zm399.37 222.86c12.44-11.28 21.53-2.17 27.77-11.54a7.94 7.94 0 0 0 1.12-4c.1-1 .5-1.1 3.1-.75 3 .4 3.44 3.87 5.28 5.08.58.4 1.5.55 1.18 2-.77 3.57-2.86 2.65-4.45 3.94-24.43 19.8-26.3 57.47 14.75 80.74 4.53 2.57 7.18 7.84 8.4 9 .9.85.53 2.87-.1 3.85s-2 .8-2.78 1.33a18.37 18.37 0 0 1-11.1 3c-58.32-4.78-60.8-76.65-43.15-92.65zM1510.7 82.4c-5.35-15.92-17.73-12.4-18.6-23.63a7.84 7.84 0 0 1 1-4c.37-.88.1-1.2-2.34-2.17-2.84-1.12-4.9 1.7-7.1 1.86-.7.05-1.56-.25-2 1.14-1.07 3.5 1.2 3.72 2 5.6 11.68 29.2-5.08 63-52.26 63.3-5.2 0-10.08 3.34-11.7 3.73-1.2.3-1.87 2.25-1.8 3.42.07 1 1.37 1.67 1.78 2.5a18.41 18.41 0 0 0 8.21 8.07c53.18 24.26 90.38-37.25 82.8-59.84zm265.48 53.1c13.7-9.7 21.63.42 29-8.13a7.87 7.87 0 0 0 1.58-3.78c.22-.93.62-1 3.17-.38 2.95.76 2.95 4.26 4.63 5.68.53.45 1.4.72.94 2.1-1.2 3.46-3.17 2.3-4.9 3.38-26.64 16.73-33 53.9 5 81.93 4.2 3.1 6.18 8.64 7.25 9.9.8 1 .18 2.9-.57 3.8s-2.1.55-2.92 1a18.37 18.37 0 0 1-11.38 1.68c-57.42-11.78-51.24-83.43-31.8-97.2zm262.4-5.36c-5.35-15.92-17.73-12.4-18.6-23.63a7.93 7.93 0 0 1 .94-4c.38-.88.1-1.2-2.33-2.17-2.84-1.12-4.9 1.7-7.1 1.86-.7.05-1.56-.25-2 1.14-1.07 3.5 1.2 3.72 2 5.62 11.67 29.2-5.08 63-52.26 63.3-5.2 0-10.1 3.34-11.7 3.73-1.2.3-1.87 2.25-1.8 3.42.07 1 1.37 1.67 1.78 2.5a18.35 18.35 0 0 0 8.21 8.07c53.26 24.26 90.43-37.27 82.84-59.84zm-73.75 318.06c-5.36-15.9-17.74-12.4-18.62-23.62a8 8 0 0 1 1-4c.38-.88.1-1.2-2.34-2.17-2.83-1.13-4.9 1.7-7.08 1.86-.7.05-1.57-.25-2 1.14-1.08 3.5 1.2 3.72 2 5.6 11.67 29.2-5.1 63-52.27 63.3-5.2 0-10.08 3.35-11.7 3.74-1.2.3-1.86 2.25-1.78 3.42.06 1 1.37 1.67 1.77 2.5A18.37 18.37 0 0 0 1882 508c53.2 24.3 90.42-37.24 82.83-59.8zm282.03-135.87c7.68-14.94 19.4-9.6 21.94-20.58a8 8 0 0 0-.34-4.09c-.24-.92.07-1.2 2.63-1.8 3-.7 4.6 2.4 6.73 2.9.68.15 1.6 0 1.8 1.42.54 3.62-1.75 3.5-2.78 5.26-15.9 27.13-4.4 63 42.22 70.4 5.14.8 9.47 4.8 11 5.44 1.16.47 1.5 2.5 1.26 3.64-.22 1-1.6 1.45-2.14 2.22a18.3 18.3 0 0 1-9.32 6.75c-56.28 16.02-83.86-50.38-73-71.56zm262.32-185.97c-13.5-10-21.64 0-28.77-8.77a7.85 7.85 0 0 1-1.5-3.82c-.2-.93-.6-1-3.16-.44-3 .7-3.05 4.2-4.75 5.57-.55.44-1.43.7-1 2.07 1.12 3.48 3.1 2.36 4.8 3.5 26.26 17.32 31.78 54.62-6.78 81.8-4.26 3-6.38 8.5-7.47 9.74-.83.94-.25 2.9.48 3.82s2.08.6 2.9 1.05a18.33 18.33 0 0 0 11.34 1.94c57.58-10.48 53-82.25 33.9-96.45zm-16.98 394.78c-5.35-15.9-17.73-12.4-18.6-23.63a8 8 0 0 1 .94-4c.38-.87.1-1.2-2.33-2.16-2.84-1.13-4.9 1.7-7.1 1.86-.7 0-1.56-.25-2 1.14-1.07 3.5 1.2 3.7 2 5.6 11.67 29.2-5.08 63-52.26 63.3-5.2 0-10.1 3.34-11.7 3.74-1.2.3-1.87 2.24-1.8 3.4.07 1 1.37 1.68 1.78 2.52a18.37 18.37 0 0 0 8.21 8.06c53.23 24.27 90.43-37.27 82.84-59.84zm444.5-138.94c.5-16.8-12.35-17.77-9.28-28.6a8 8 0 0 1 2.26-3.42c.66-.7.52-1.08-1.44-2.84-2.27-2-5.18-.1-7.3-.7-.67-.2-1.38-.78-2.26.38-2.22 2.9-.16 3.9-.1 5.94.84 31.44-26.57 57.34-70.94 41.3-4.9-1.77-10.62-.36-12.26-.54-1.24-.14-2.53 1.46-2.86 2.58-.28 1 .7 2 .8 3a18.42 18.42 0 0 0 4.91 10.41c41.58 41.16 97.77-3.7 98.46-27.5zm-54.58 99.4c12.17-11.58 21.47-2.7 27.5-12.2a7.94 7.94 0 0 0 1-4c.08-1 .46-1.1 3.08-.82 3 .33 3.53 3.8 5.4 5 .6.37 1.5.5 1.23 1.94-.68 3.6-2.8 2.73-4.35 4-24 20.37-24.92 58.08 16.67 80.37 4.6 2.46 7.36 7.66 8.6 8.76.93.83.6 2.86 0 3.86s-2 .83-2.75 1.4a18.38 18.38 0 0 1-11 3.3c-58.42-3.4-62.6-75.18-45.35-91.6z"/><path d="M74.7 248.7c16.53-22.7 34.5-10.88 41.54-28.35.94-2.34.74-4.32.5-6.84-.16-1.58.42-1.95 4.82-2.28 5.1-.37 6.95 5.17 10.36 6.52 1.1.43 2.63.4 2.6 2.82 0 6.1-3.78 5.32-5.94 8-33.27 40.73-23.5 103 51.62 127.17 8.3 2.66 14.4 10.38 16.78 11.82 1.78 1.1 1.84 4.52 1.13 6.34-.6 1.56-3 2-4.1 3.12a30.64 30.64 0 0 1-17.13 8.75C79.77 397.7 51.28 280.9 74.7 248.7zm593.53 262.1c16.53-22.7 34.5-10.9 41.54-28.36.94-2.34.74-4.32.5-6.84-.16-1.58.42-1.95 4.82-2.28 5.1-.37 6.95 5.17 10.37 6.52 1.08.43 2.62.4 2.6 2.82 0 6.1-3.78 5.32-5.94 8-33.27 40.72-23.48 103 51.62 127.16 8.3 2.66 14.4 10.4 16.78 11.82 1.78 1.1 1.84 4.52 1.13 6.35-.6 1.55-3 2-4.1 3.1a30.7 30.7 0 0 1-17.14 8.75C673.3 659.8 644.8 543 668.23 510.8zm-103.5-372.74c-16.52-22.7-34.5-10.9-41.54-28.36-.94-2.34-.74-4.32-.5-6.83.16-1.6-.42-2-4.8-2.28-5.1-.38-7 5.16-10.37 6.5-1.1.44-2.62.4-2.6 2.82 0 6.12 3.8 5.32 5.95 8 33.26 40.73 23.48 103-51.63 127.16-8.3 2.67-14.4 10.4-16.77 11.83-1.78 1.08-1.85 4.5-1.14 6.34.6 1.56 3 2 4.1 3.1a30.7 30.7 0 0 0 17.14 8.75c97.1 11.95 125.6-104.86 102.17-137.05zm539.95-52.53c-9-26.6-29.65-20.73-31.12-39.5-.2-2.52.6-4.35 1.58-6.67.63-1.47.18-2-3.9-3.62-4.74-1.9-8.18 2.84-11.84 3.1-1.17.08-2.62-.42-3.33 1.9-1.8 5.85 2 6.2 3.28 9.38C1078.85 99 1050.84 155.46 972 156c-8.7.06-16.86 5.6-19.55 6.25-2 .5-3.12 3.75-3 5.7.1 1.67 2.3 2.8 3 4.2a30.72 30.72 0 0 0 13.72 13.49c89 40.5 151.2-62.38 138.5-100.12zm169.87 234.9c-9-26.6-29.65-20.73-31.12-39.5-.2-2.52.6-4.35 1.58-6.67.63-1.47.18-2-3.9-3.62-4.74-1.9-8.18 2.83-11.85 3.1-1.16.1-2.6-.4-3.33 1.9-1.8 5.85 2 6.2 3.28 9.38 19.52 48.83-8.5 105.33-87.38 105.83-8.7.05-16.86 5.58-19.55 6.25-2 .5-3.12 3.75-3 5.7.1 1.67 2.3 2.8 3 4.2a30.7 30.7 0 0 0 13.72 13.5c89 40.56 151.24-62.33 138.55-100.07zm304.23-182.03c9-26.6 29.65-20.73 31.12-39.5.2-2.5-.6-4.35-1.58-6.67-.63-1.46-.18-2 3.9-3.62 4.74-1.88 8.18 2.84 11.85 3.1 1.16.1 2.6-.42 3.33 1.9 1.8 5.84-2 6.2-3.28 9.38-19.52 48.83 8.5 105.33 87.38 105.83 8.7 0 16.86 5.58 19.55 6.25 2 .5 3.12 3.75 3 5.7-.1 1.67-2.3 2.8-3 4.2a30.75 30.75 0 0 1-13.73 13.48c-89.02 40.55-151.22-62.3-138.54-100.05zm754.87-48.6c-9-26.6-29.65-20.73-31.12-39.5-.2-2.52.6-4.35 1.58-6.67.63-1.46.2-2-3.9-3.62-4.74-1.88-8.18 2.84-11.84 3.1-1.17.1-2.62-.42-3.33 1.9-1.8 5.85 2 6.22 3.28 9.4 19.5 48.83-8.5 105.32-87.4 105.83-8.7 0-16.86 5.58-19.55 6.24-2 .5-3.12 3.76-3 5.7.1 1.67 2.3 2.8 3 4.2a30.67 30.67 0 0 0 13.72 13.49c89.04 40.55 151.26-62.33 138.56-100.07zm72.9 211.2c16.13-23 34.3-11.48 41-29.08.9-2.35.67-4.33.37-6.84-.18-1.58.4-2 4.78-2.36 5.08-.47 7 5 10.48 6.33 1.1.4 2.63.34 2.65 2.77.06 6.12-3.7 5.4-5.8 8.07-32.55 41.3-21.68 103.42 53.83 126.25 8.34 2.52 14.6 10.13 17 11.53 1.8 1 1.93 4.48 1.25 6.32-.58 1.57-3 2-4 3.2a30.65 30.65 0 0 1-17 9c-96.9 13.7-127.42-102.6-104.56-135.18zm-172.23 222.4c-9-26.6-29.65-20.73-31.13-39.5-.2-2.52.6-4.35 1.6-6.67.63-1.47.18-2-3.9-3.62-4.74-1.9-8.2 2.84-11.85 3.1-1.16.08-2.62-.42-3.33 1.9-1.8 5.85 2 6.2 3.28 9.38 19.52 48.84-8.5 105.33-87.38 105.83-8.7.06-16.87 5.6-19.55 6.25-2 .5-3.12 3.75-3 5.7.1 1.67 2.3 2.8 3 4.2a30.74 30.74 0 0 0 13.73 13.49c89 40.54 151.2-62.33 138.53-100.06z" opacity=".8" class="E"/><path class="F" d="M412.53 392.73c-36.07-107.23-119.46-83.53-125.4-159.18-.8-10.14 2.38-17.52 6.38-26.87 2.53-5.9.74-8-15.76-14.6-19.1-7.6-33 11.44-47.72 12.53-4.7.34-10.55-1.7-13.42 7.67-7.22 23.56 8.12 25 13.22 37.8 78.63 196.74-34.25 424.37-352.1 426.4-35.08.22-67.94 22.5-78.77 25.17-8.16 2-12.56 15.12-12 23 .45 6.73 9.24 11.28 12 16.94 14.22 29.3 41.23 47.92 55.3 54.33 358.73 163.4 609.4-251.15 558.26-403.2zM749 248.9c87.36 71.87 145.57 7.62 190.64 68.67 6 8.18 7.26 16.12 8.82 26.17 1 6.35 3.62 7.2 21.1 4 20.23-3.66 21.9-27.15 33.86-35.9 3.8-2.77 9.84-4.15 7.32-13.6-6.35-23.8-20.14-16.94-31.23-25.08-170.87-125.3-195.6-378.15 73-548.13 29.64-18.76 45.72-55.06 53.5-63.06 5.86-6 2.65-19.47-2-25.88-3.94-5.47-13.8-4.68-19.13-8-27.58-17.33-60.35-18.84-75.68-16.83C618.28-337.4 625.07 147 749 248.9zM2677.55 155c25.23 110.28 110.56 95 108.94 170.86-.22 10.17-4.1 17.2-9 26.1-3.1 5.63-1.54 7.9 14.23 16.08 18.25 9.46 33.94-8.1 48.73-7.72 4.7.13 10.33 2.73 14.1-6.3 9.53-22.73-5.58-25.72-9.4-38.94-58.68-203.6 76.28-418.85 392.75-389.25 34.93 3.26 69.84-15.64 80.9-17.22 8.3-1.2 14-13.8 14.26-21.7.22-6.74-8.07-12.14-10.24-18-11.24-30.57-36.26-51.8-49.62-59.57C2932.42-388.9 2641.77-1.35 2677.55 155zm-559.3 52.64c-80.56 79.43-144.3 20.66-183.7 85.5-5.3 8.7-5.8 16.7-6.43 26.86-.4 6.42-3 7.5-20.65 5.9-20.47-1.83-24.26-25.08-36.94-32.7-4-2.42-10.17-3.25-8.5-12.9 4.18-24.28 18.54-18.68 28.85-27.78C2049.8 112.4 2051.74-141.66 1769-286.85c-31.2-16-50.48-50.73-59-58-6.37-5.47-4.38-19.16-.36-26 3.43-5.8 13.33-5.9 18.34-9.7 25.9-19.73 58.4-24.18 73.86-23.55C2195.8-388 2232.5 95 2118.25 207.64zm-443.07 144.1c-78.54-81.42-143.73-24.27-181.5-90.1-5.06-8.82-5.36-16.84-5.75-27-.25-6.42-2.77-7.56-20.5-6.42-20.5 1.32-24.88 24.46-37.75 31.76-4.1 2.33-10.25 3-8.83 12.68 3.57 24.4 18.06 19.15 28.15 28.5 155.36 144.07 150.92 398.1-135.4 536.14-31.6 15.24-51.74 49.45-60.38 56.5-6.5 5.3-4.86 19-1 25.94 3.28 5.88 13.17 6.22 18.08 10.16 25.4 20.37 57.8 25.63 73.25 25.4 394.2-6.14 443-488.1 331.63-603.57zM2779.05 548c-36.07-107.23-119.46-83.53-125.4-159.18-.8-10.14 2.38-17.52 6.38-26.87 2.53-5.9.74-8-15.76-14.6-19.1-7.6-33 11.44-47.72 12.53-4.7.34-10.55-1.7-13.42 7.67-7.23 23.56 8.12 25 13.22 37.8 78.63 196.74-34.25 424.37-352.1 426.4-35.08.22-67.93 22.5-78.77 25.17-8.15 2-12.55 15.12-12 23 .45 6.73 9.24 11.28 12 16.94 14.22 29.3 41.22 47.93 55.3 54.33 358.76 163.44 609.42-251.1 558.27-403.2z"/></svg>