<?xml version="1.0" encoding="utf-8"?>
<!-- Generator: Adobe Illustrator 19.0.0, SVG Export Plug-In . SVG Version: 6.00 Build 0)  -->
<svg version="1.2" baseProfile="tiny" id="Layer_1" xmlns="http://www.w3.org/2000/svg" xmlns:xlink="http://www.w3.org/1999/xlink"
	 x="0px" y="0px" viewBox="-188 278.7 234.7 236.3" xml:space="preserve">
<path id="XMLID_25_" fill="#4A90E2" d="M-102.6,293.5c7.4,7.3,21.4,19.5,32,19.8c12.4,0.3,18.8-6.8,31.9-19.9
	c19.5-19.5,51.2-19.5,70.8,0c12.1,12.1,17.2,29.5,13.5,46.2c-2,9.5-6.7,18.2-13.6,25c-26.6,26.6-26.5,38.3,0,64.8
	c19.6,19.5,19.6,51.2,0.1,70.8l0,0c-19.5,19.5-51.2,19.5-70.8,0l0,0c-19.6-19.6-19.6-51.2,0-70.8c26.6-26.6,26.5-38.3,0-64.8
	s-37.3-26.5-63.8,0c-19.5,19.5-51.2,19.5-70.8,0c-12.1-12.1-17.2-29.5-13.5-46.2c3-13.9,11.1-22.6,13.6-25
	c2.7-2.6,14.9-14.6,35.5-14.6C-114.7,278.8-102.6,293.5-102.6,293.5z"/>
<path fill="#B7CFEA" d="M-137.7,415c27.6,0,50,22.4,50,50c0,27.6-22.4,50-50,50s-50-22.4-50-50C-187.7,437.4-165.3,415-137.7,415z"
	/>
</svg>
