<?xml version="1.0" encoding="utf-8"?>
<!-- Generator: Adobe Illustrator 19.0.0, SVG Export Plug-In . SVG Version: 6.00 Build 0)  -->
<svg version="1.1" id="Layer_1" xmlns="http://www.w3.org/2000/svg" xmlns:xlink="http://www.w3.org/1999/xlink" x="0px" y="0px"
	 viewBox="443 143.1 1498.3 506.9" style="enable-background:new 443 143.1 1498.3 506.9;" xml:space="preserve">
<style type="text/css">
	.st0{fill:#4A90E2;}
	.st1{fill:#B7CFEA;}
	.st2{fill:#FFF;}
</style>
<g transform="translate(-233.7 -345.73)">
	<path class="st0" d="M826,845.9c-19.6-19.6-19.6-51.2,0-70.8c26.6-26.6,26.5-38.3,0-64.8c-26.5-26.5-37.3-26.5-63.8,0
		c-19.5,19.5-51.2,19.5-70.8,0c-12.1-12.1-17.2-29.5-13.5-46.2c2-9.5,6.7-18.2,13.6-25c26.6-26.6,26.5-38.3,0-64.8
		c-19.6-19.5-19.6-51.2-0.1-70.8c0,0,0,0,0,0c9.4-9.4,22.1-14.7,35.4-14.7c13.3,0,26,5.3,35.4,14.7c19.6,19.6,19.6,51.2,0,70.8
		c-26.6,26.6-26.5,38.3,0,64.8c26.5,26.5,37.3,26.5,63.8,0c19.5-19.5,51.2-19.5,70.8,0c12.1,12.1,17.2,29.5,13.5,46.2
		c-2,9.5-6.7,18.2-13.6,25c-26.6,26.6-26.5,38.3,0,64.8c19.6,19.5,19.6,51.2,0.1,70.8c0,0,0,0,0,0
		C877.2,865.5,845.5,865.5,826,845.9L826,845.9z"/>
	<path class="st1" d="M727,760.7c27.6,0,50,22.4,50,50s-22.4,50-50,50s-50-22.4-50-50S699.4,760.7,727,760.7z"/>
	<path class="st1" d="M862,490.7c27.6,0,50,22.4,50,50c0,27.6-22.4,50-50,50s-50-22.4-50-50C812,513.1,834.4,490.7,862,490.7z"/>
	<path class="st1" d="M997,490.7c27.6,0,50,22.4,50,50c0,27.6-22.4,50-50,50s-50-22.4-50-50C947,513.1,969.4,490.7,997,490.7z"/>
	<path class="st1" d="M997,625.7c27.6,0,50,22.4,50,50c0,27.6-22.4,50-50,50s-50-22.4-50-50C947,648.1,969.4,625.7,997,625.7z"/>
	<path class="st1" d="M997,760.7c27.6,0,50,22.4,50,50s-22.4,50-50,50s-50-22.4-50-50S969.4,760.7,997,760.7z"/>
	<path class="st1" d="M862,895.7c27.6,0,50,22.4,50,50s-22.4,50-50,50s-50-22.4-50-50S834.4,895.7,862,895.7z"/>
	<path class="st2" d="M1411.4,860.1h54.8V593.3h-56.8v172.8l-123.6-172.8h-58.4v266.8h56.8V680.9L1411.4,860.1z M1633.8,860.1h50.8
		V735.3c0-55.6-40.4-73.2-84.4-73.2c-30.4,0-60.8,9.6-84.4,30.4l19.2,34c16.4-15.2,35.6-22.8,56.4-22.8c25.6,0,42.4,12.8,42.4,32.4
		v26.8c-12.8-15.6-35.6-23.6-61.2-23.6c-30.8,0-67.2,16.4-67.2,61.6c0,43.2,36.4,64,67.2,64c25.2,0,48-9.2,61.2-24.8V860.1z
		 M1633.8,813.7c-8.4,11.2-24.4,16.8-40.8,16.8c-20,0-36.4-10.4-36.4-28.4c0-18.8,16.4-29.2,36.4-29.2c16.4,0,32.4,5.6,40.8,16.8
		V813.7z M1865.4,860.1h50.8V666.9h-50.8v130.8c-8.8,11.2-24.4,22-44,22c-21.6,0-35.6-8.8-35.6-35.6V666.9H1735v137.2
		c0,37.6,20,60.8,62.4,60.8c31.6,0,54.8-14.4,68-29.2V860.1z M1966.6,860.1h50.8V593.3h-50.8V860.1z M2132.6,864.9
		c21.2,0,34.8-5.6,42.4-12.4l-10.8-38.4c-2.8,2.8-10,5.6-17.6,5.6c-11.2,0-17.6-9.2-17.6-21.2v-87.2h39.2v-44.4H2129v-52.8h-51.2
		v52.8h-32v44.4h32v100.8C2077.8,846.5,2097,864.9,2132.6,864.9z"/>
</g>
</svg>
