<svg width="19" height="19" version="1.1" viewBox="0 0 20 20" xmlns="http://www.w3.org/2000/svg" xmlns:xlink="http://www.w3.org/1999/xlink">
 <g stroke="#000" stroke-linejoin="round">
  <path d="m1.1862 0.67174h4.2149c0.70291 0.06946 0.47965 0.86669 0.51637 1.3516v3.2508c-0.06946 0.70291-0.86669 0.47965-1.3516 0.51637h-3.3796c-0.70291-0.06946-0.47965-0.86669-0.51637-1.3516v-3.2508c-0.007441-0.27687 0.23951-0.52381 0.51637-0.51637z" fill="none" stop-color="#000000" stroke-width="1.0328"/>
  <path d="m2.5258 2.2986c0.53587 0.00992 1.0757-0.019807 1.6091 0.01474 0.23655 0.27254 0.060238 0.71847 0.11477 1.0643-1.04e-4 0.32507 0.1094 0.91484-0.41088 0.78601-0.47786-0.034232-0.99108 0.070086-1.4461-0.054985-0.12377-0.51405-0.021628-1.0852-0.054986-1.622-0.0027162-0.10088 0.087266-0.19086 0.18815-0.18815z" stop-color="#000000" stroke-width=".37629"/>
  <path d="m14.643 0.67174h4.2149c0.70292 0.06946 0.47965 0.86669 0.51637 1.3516v3.2508c-0.06946 0.70291-0.86669 0.47965-1.3516 0.51637h-3.3796c-0.70291-0.06946-0.47965-0.86669-0.51637-1.3516v-3.2508c-0.0074-0.27687 0.23951-0.52381 0.51637-0.51637z" fill="none" stop-color="#000000" stroke-width="1.0328"/>
  <path d="m15.983 2.2986c0.53587 0.00992 1.0757-0.019807 1.6091 0.01474 0.23655 0.27254 0.06024 0.71847 0.11478 1.0643-1.05e-4 0.32507 0.1094 0.91484-0.41088 0.78601-0.47786-0.034232-0.99108 0.070087-1.4461-0.054985-0.12377-0.51405-0.02163-1.0852-0.05498-1.622-0.0027-0.10088 0.08727-0.19086 0.18814-0.18815z" stop-color="#000000" stroke-width=".37629"/>
  <path d="m1.1862 14.129h4.2149c0.70291 0.06946 0.47965 0.86669 0.51637 1.3516v3.2508c-0.06946 0.70291-0.86669 0.47965-1.3516 0.51637h-3.3796c-0.70291-0.06946-0.47965-0.86669-0.51637-1.3516v-3.2508c-0.007441-0.27687 0.23951-0.52381 0.51637-0.51637z" fill="none" stop-color="#000000" stroke-width="1.0328"/>
  <path d="m2.5258 15.756c0.53587 0.0099 1.0757-0.01981 1.6091 0.01474 0.23655 0.27254 0.060238 0.71847 0.11477 1.0643-1.041e-4 0.32507 0.1094 0.91484-0.41088 0.78601-0.47786-0.03423-0.99108 0.07008-1.4461-0.05498-0.12377-0.51405-0.021628-1.0852-0.054985-1.622-0.00272-0.10088 0.087266-0.19086 0.18815-0.18815z" stop-color="#000000" stroke-width=".37629"/>
  <path d="m9.4288 12.399c-0.24926-0.08207-0.81168 0.16869-0.8612-0.13114 0.013235-0.56054-0.02643-1.143 0.019763-1.6899 0.24926 0.08207 0.81168-0.16869 0.8612 0.13114-0.013145 0.56026 0.026301 1.1434-0.019763 1.6899zm6.3827 4.2755c0.26738 0.07702 0.83142-0.16134 0.90101 0.13204-0.07731 0.25196 0.20295 0.86606-0.24341 0.76386-0.30938-0.02311-0.83826 0.14727-0.67827-0.35478 0.01684-0.17466-0.03179-0.38188 0.02068-0.54112zm-1.0946-0.96582c0.26738 0.07702 0.83142-0.16134 0.90101 0.13204-0.07731 0.25196 0.20295 0.86606-0.24341 0.76386-0.30938-0.02311-0.83826 0.14727-0.67827-0.35478 0.01684-0.17466-0.03179-0.38188 0.02068-0.54112zm1.0302-1.0946c0.26738 0.07702 0.83142-0.16134 0.90101 0.13204-0.0773 0.25196 0.20295 0.86606-0.24341 0.76386-0.30938-0.02311-0.83826 0.14727-0.67827-0.35478 0.01685-0.17466-0.03179-0.38188 0.02068-0.54112zm-0.96582-1.0302c0.26738 0.07702 0.83142-0.16134 0.90101 0.13204-0.0773 0.25196 0.20295 0.86606-0.24341 0.76386-0.30938-0.02311-0.83826 0.14727-0.67827-0.35478 0.01684-0.17466-0.03179-0.38188 0.02068-0.54112zm4.0886 4.153c0.26738 0.07702 0.83142-0.16134 0.901 0.13204-0.0773 0.25196 0.20295 0.86606-0.24341 0.76386-0.30938-0.02311-0.83826 0.14726-0.67827-0.35478 0.01684-0.17466-0.03178-0.38188 0.02067-0.54112zm-2e-6 -7.2114c0.26738 0.07702 0.83142-0.16134 0.90101 0.13204-0.0773 0.25196 0.20295 0.86606-0.24341 0.76386-0.30938-0.02311-0.83826 0.14727-0.67827-0.35478 0.01684-0.17466-0.03179-0.38188 0.02068-0.54112zm-1.0302-1.0302c0.26738 0.077025 0.83142-0.16134 0.90101 0.13204-0.0773 0.25196 0.20295 0.86606-0.24341 0.76386-0.30938-0.02311-0.83826 0.14727-0.67827-0.35478 0.01684-0.17466-0.03178-0.38187 0.02068-0.54112zm-0.03219-2.0926c0.26738 0.077025 0.83142-0.16134 0.901 0.13204-0.0773 0.25196 0.20295 0.86606-0.24341 0.76386-0.30938-0.02311-0.83826 0.14727-0.67827-0.35478 0.01685-0.17466-0.03178-0.38188 0.02068-0.54112zm-3.3072 2.0972c0.35676 0.016726 0.74118-0.03333 1.0808 0.024801-0.08284 0.25042 0.1718 0.81399-0.13617 0.86184-0.30085-0.0523-0.77871 0.10556-0.96942-0.08048 0.01917-0.26271-0.03665-0.56158 0.02481-0.80616zm-0.84579 2.0558c0.26738 0.07702 0.83142-0.16134 0.901 0.13204-0.0773 0.25195 0.20295 0.86606-0.24341 0.76386-0.30938-0.02311-0.83826 0.14727-0.67827-0.35478 0.01684-0.17466-0.03179-0.38188 0.02067-0.54112zm-1.9638 7.2436c0.26738 0.07702 0.83142-0.16134 0.901 0.13204-0.07731 0.25195 0.20295 0.86606-0.24341 0.76386-0.30938-0.02311-0.83826 0.14726-0.67827-0.35478 0.01684-0.17466-0.03179-0.38188 0.02068-0.54112zm-3.1228-2.0926c0.26738 0.07702 0.83142-0.16134 0.90101 0.13204-0.077306 0.25196 0.20295 0.86606-0.24341 0.76386-0.30938-0.02311-0.83826 0.14727-0.67827-0.35478 0.016844-0.17466-0.031783-0.38188 0.020675-0.54112zm-1.0302-1.0302c0.26738 0.07702 0.83142-0.16134 0.90101 0.13204-0.077306 0.25195 0.20295 0.86606-0.24341 0.76386-0.30938-0.02311-0.83826 0.14726-0.67827-0.35478 0.016844-0.17466-0.031783-0.38188 0.020676-0.54112zm-2.0926-4.153c0.26738 0.07702 0.83142-0.16134 0.90101 0.13204-0.077306 0.25196 0.20295 0.86606-0.24341 0.76386-0.30938-0.02311-0.83826 0.14727-0.67827-0.35478 0.016844-0.17466-0.031783-0.38188 0.020675-0.54112zm-2.0926 0c0.26738 0.07702 0.83142-0.16134 0.90101 0.13204-0.077306 0.25196 0.20295 0.86606-0.24341 0.76386-0.30938-0.02311-0.83826 0.14727-0.67827-0.35478 0.016844-0.17466-0.031783-0.38188 0.020676-0.54112zm-0.96582-0.99801c0.26738 0.07702 0.83142-0.16134 0.90101 0.13204-0.077306 0.25196 0.20295 0.86606-0.24341 0.76386-0.30938-0.02311-0.83826 0.14726-0.67827-0.35478 0.016844-0.17466-0.031783-0.38188 0.020676-0.54112zm0.99801-0.99801c0.26738 0.077025 0.83142-0.16134 0.90101 0.13204-0.077306 0.25196 0.20295 0.86606-0.24341 0.76386-0.30938-0.023113-0.83826 0.14726-0.67827-0.35478 0.016844-0.17466-0.031783-0.38188 0.020676-0.54112zm-1.0302-2.0604c0.26738 0.077025 0.83142-0.16134 0.90101 0.13204-0.077306 0.25196 0.20295 0.86606-0.24341 0.76386-0.30938-0.02311-0.83826 0.14727-0.67827-0.35478 0.016844-0.17466-0.031783-0.38188 0.020676-0.54112zm4.153-0.032194c0.26738 0.077025 0.83142-0.16134 0.90101 0.13204-0.077306 0.25196 0.20295 0.86606-0.24341 0.76386-0.30938-0.02311-0.83826 0.14727-0.67827-0.35478 0.016844-0.17466-0.031783-0.38188 0.020676-0.54112zm-6.1686 4.9573c0.082073-0.24926-0.16868-0.81168 0.13113-0.86121 0.56054 0.01324 1.143-0.02644 1.6899 0.01977-0.082073 0.24926 0.16868 0.81168-0.13113 0.86121-0.56026-0.01315-1.1434 0.0263-1.6899-0.01977zm7.2758 7.308c0.082073-0.24926-0.16868-0.81168 0.13113-0.86121 0.56054 0.01324 1.143-0.02644 1.6899 0.01977-0.082073 0.24926 0.16868 0.81168-0.13113 0.86121-0.56026-0.01315-1.1434 0.0263-1.6899-0.01977zm2.0926-1.0946c0.082073-0.24926-0.16868-0.81168 0.13113-0.86121 0.56054 0.01324 1.143-0.02644 1.6899 0.01977-0.08207 0.24926 0.16869 0.81168-0.13114 0.86121-0.56026-0.01315-1.1434 0.0263-1.6899-0.01977zm-0.096581-2.0282c0.082073-0.24926-0.16868-0.81168 0.13113-0.86121 0.56054 0.01324 1.143-0.02644 1.6899 0.01977-0.08207 0.24926 0.16869 0.81168-0.13114 0.86121-0.56026-0.01315-1.1434 0.0263-1.6899-0.01977zm3.1027 1.1403c0.01628-0.3323-0.03202-0.69134 0.02312-1.0075 0.5922 0.01577 1.2104-0.0313 1.7866 0.02312-0.01628 0.3323 0.03201 0.69134-0.02312 1.0075-0.59182-0.01565-1.211 0.03114-1.7866-0.02312zm0.82786 0.83739c-0.24955-0.08651-0.86145 0.19614-0.83087-0.18612 0.01292-0.86457-0.02571-1.7505 0.01906-2.6019 0.24955 0.08651 0.86145-0.19614 0.83087 0.18612-0.01284 0.86439 0.02558 1.7507-0.01906 2.6019zm-0.05997-4.8979c-0.08561 0.25764 0.19452 0.87461-0.18662 0.85264-0.62487-0.01342-1.2719 0.02658-1.8832-0.01957 0.08561-0.25764-0.19452-0.87461 0.18662-0.85264 0.62461 0.01329 1.2722-0.02642 1.8832 0.01957zm-0.84393-1.0091c0.24926 0.08207 0.81168-0.16869 0.86121 0.13114-0.01324 0.56054 0.02644 1.143-0.01977 1.6899-0.24926-0.08207-0.81168 0.16869-0.86121-0.13114 0.01315-0.55998-0.0263-1.1438 0.01977-1.6899zm-2.0121-0.0032c0.24926 0.08207 0.81168-0.16869 0.86121 0.13114-0.01324 0.56054 0.02644 1.143-0.01977 1.6899-0.24926-0.08207-0.81168 0.16869-0.86121-0.13114 0.01315-0.56026-0.0263-1.1434 0.01977-1.6899zm-1.0049 0.84831c0.082073-0.24926-0.16868-0.81168 0.13113-0.86121 0.56054 0.01324 1.143-0.02644 1.6899 0.01977-0.08207 0.24926 0.16869 0.81168-0.13114 0.86121-0.56026-0.01315-1.1434 0.0263-1.6899-0.01977zm-1.0233 0.1497c0.24926 0.08207 0.81168-0.16869 0.8612 0.13114-0.013235 0.56054 0.02643 1.143-0.019763 1.6899-0.24926-0.08207-0.81168 0.16869-0.8612-0.13114 0.013145-0.56026-0.026301-1.1434 0.019763-1.6899zm-1.0049 0.84831c0.082073-0.24926-0.16868-0.81168 0.13113-0.86121 0.56054 0.01324 1.143-0.02644 1.6899 0.01977-0.082073 0.24926 0.16868 0.81168-0.13113 0.86121-0.56026-0.01315-1.1434 0.0263-1.6899-0.01977zm2.8673-6.0536c-0.08207 0.24926 0.16868 0.81168-0.13113 0.8612-0.56054-0.013235-1.143 0.02643-1.6899-0.019763 0.082074-0.24926-0.16868-0.81168 0.13113-0.8612 0.56026 0.013145 1.1434-0.026301 1.6899 0.019763zm-0.84831-1.0049c0.24926 0.082074 0.81168-0.16868 0.8612 0.13113-0.01323 0.56054 0.02643 1.143-0.01977 1.6899-0.24925-0.082074-0.81167 0.16868-0.8612-0.13113 0.013145-0.56026-0.026301-1.1434 0.019763-1.6899zm1.0775 3.8823c0.08651-0.24955-0.19614-0.86145 0.18612-0.83087 0.86457 0.01292 1.7505-0.0257 2.6019 0.01906-0.08651 0.24955 0.19614 0.86145-0.18612 0.83087-0.8644-0.01283-1.7507 0.02558-2.6019-0.01907zm-0.04771-0.98319c0.08207-0.24926-0.16869-0.81168 0.13114-0.8612 0.56054 0.013235 1.143-0.02643 1.6899 0.019763-0.08207 0.24926 0.16869 0.81168-0.13113 0.8612-0.56026-0.01315-1.1434 0.0263-1.6899-0.01977zm4.0886-1.9638c0.08207-0.24926-0.16869-0.81168 0.13114-0.8612 0.56054 0.013235 1.143-0.02643 1.6899 0.019763-0.08207 0.24926 0.16869 0.81168-0.13113 0.8612-0.56026-0.013145-1.1434 0.026301-1.6899-0.019763zm2.9409 11.307c-0.24926-0.08207-0.81168 0.16869-0.86121-0.13114 0.01324-0.56054-0.02644-1.143 0.01977-1.6899 0.24926 0.08207 0.81168-0.16869 0.86121 0.13114-0.01315 0.56026 0.0263 1.1434-0.01977 1.6899zm-5.151-14.552c-0.24926-0.082073-0.81168 0.16868-0.86121-0.13113 0.01324-0.56054-0.02644-1.143 0.01977-1.6899 0.24926 0.082073 0.81168-0.16868 0.86121 0.13113-0.01315 0.56026 0.0263 1.1434-0.01977 1.6899zm-7.2758 4.1852c-0.24926-0.082074-0.81168 0.16868-0.8612-0.13113 0.013235-0.56054-0.02643-1.143 0.019763-1.6899 0.24926 0.082074 0.81168-0.16868 0.8612 0.13113-0.013145 0.56026 0.026301 1.1434-0.019763 1.6899zm4.2174-2.157c-0.24926-0.082074-0.81168 0.16868-0.8612-0.13113 0.013235-0.56054-0.02643-1.143 0.019763-1.6899 0.24926 0.082074 0.81168-0.16868 0.8612 0.13113-0.013145 0.56026 0.026301 1.1434-0.019763 1.6899zm-0.08971-0.75173c-0.082074 0.24926 0.16868 0.81168-0.13113 0.8612-0.56054-0.013235-1.143 0.02643-1.6899-0.019763 0.082074-0.24926-0.16868-0.81168 0.13113-0.8612 0.56026 0.013145 1.1434-0.026301 1.6899 0.019763zm4.1135 12.192c0.08561-0.25764-0.19452-0.8746 0.18661-0.85264 0.62487 0.01342 1.2719-0.02658 1.8832 0.01957-0.08561 0.25764 0.19452 0.87461-0.18662 0.85264-0.62461-0.01329-1.2722 0.02642-1.8832-0.01957zm1.1015 1.0091c-0.24926-0.08207-0.81167 0.16868-0.86121-0.13112 0.01324-0.56054-0.02644-1.143 0.01977-1.6899 0.24926 0.08207 0.81168-0.16869 0.86121 0.13114-0.01315 0.56026 0.0263 1.1434-0.01977 1.6899zm3.3047-4.0633c0.08207-0.24926-0.16869-0.81168 0.13114-0.86121 0.56054 0.01324 1.143-0.02644 1.6899 0.01977-0.08207 0.24926 0.16869 0.81168-0.13114 0.86121-0.55998-0.01315-1.1438 0.0263-1.6899-0.01977zm0.84831 1.0049c-0.24926-0.08207-0.81168 0.16869-0.86121-0.13114 0.01324-0.56054-0.02644-1.143 0.01977-1.6899 0.24926 0.08207 0.81168-0.16869 0.86121 0.13114-0.01315 0.56026 0.0263 1.1434-0.01977 1.6899zm-1.8463-3.0331c0.08207-0.24926-0.16869-0.81168 0.13114-0.86121 0.56054 0.01324 1.143-0.02644 1.6899 0.01977-0.08207 0.24926 0.16869 0.81168-0.13114 0.86121-0.56026-0.01315-1.1434 0.0263-1.6899-0.01977zm0.77489 0.99542c-0.25401-0.08597-0.86852 0.19517-0.84272-0.18638 0.01324-0.72891-0.02625-1.4797 0.01934-2.1952 0.25401 0.08596 0.86852-0.19517 0.84271 0.18638-0.0131 0.7287 0.02606 1.48-0.01933 2.1952zm-1.0695-2.0477c-0.24926-0.08207-0.81168 0.16869-0.86121-0.13114 0.01324-0.56054-0.02644-1.143 0.01977-1.6899 0.24926 0.08207 0.81168-0.16869 0.86121 0.13114-0.01315 0.56026 0.0263 1.1434-0.01977 1.6899zm1.0049-0.84831c-0.08207 0.24926 0.16869 0.81168-0.13113 0.86121-0.56054-0.01324-1.143 0.02644-1.6899-0.01977 0.08207-0.24926-0.16869-0.81168 0.13114-0.86121 0.56026 0.01315 1.1434-0.0263 1.6899 0.01977zm-3.9518-3.0846c0.24926 0.082073 0.81168-0.16868 0.86121 0.13113-0.01324 0.56054 0.02644 1.143-0.01977 1.6899-0.24926-0.08207-0.81168 0.16868-0.86121-0.13113 0.01315-0.56026-0.0263-1.1434 0.01977-1.6899zm-1.0049 0.84831c0.08207-0.24926-0.16869-0.81168 0.13113-0.8612 0.56054 0.013235 1.143-0.02643 1.6899 0.019763-0.08207 0.24926 0.16869 0.81168-0.13114 0.8612-0.55998-0.013143-1.1438 0.026297-1.6899-0.019763zm-6.1422 0.21408c0.24926 0.082074 0.81168-0.16868 0.8612 0.13113-0.013235 0.56054 0.02643 1.143-0.019763 1.6899-0.24926-0.08207-0.81168 0.16869-0.8612-0.13114 0.013145-0.56026-0.026301-1.1434 0.019763-1.6899zm-0.98892 0.83307c0.086554-0.24922-0.19622-0.86094 0.1861-0.83 0.87508 0.012741 1.7713-0.025453 2.6332 0.019047-0.086554 0.24922 0.19622 0.86094-0.1861 0.83-0.87492-0.01268-1.7715 0.02537-2.6332-0.01904zm-4.338-1.0854c-0.24926-0.082074-0.81168 0.16868-0.8612-0.13113 0.013235-0.56054-0.02643-1.143 0.019763-1.6899 0.24926 0.082074 0.81168-0.16868 0.8612 0.13113-0.013145 0.56026 0.026301 1.1434-0.019763 1.6899zm1.0049-0.84831c-0.082074 0.24926 0.16868 0.81168-0.13113 0.8612-0.56054-0.013235-1.143 0.02643-1.6899-0.019763 0.082074-0.24926-0.16868-0.81168 0.13113-0.8612 0.56026 0.013145 1.1434-0.026301 1.6899 0.019763zm9.2972-1.2121c-0.24926-0.082073-0.81168 0.16868-0.86121-0.13113 0.01324-0.56054-0.02644-1.143 0.01977-1.6899 0.24926 0.082073 0.81168-0.16868 0.86121 0.13113-0.01315 0.56026 0.0263 1.1434-0.01977 1.6899zm1.0049-0.84831c-0.08207 0.24926 0.16869 0.81168-0.13114 0.8612-0.56054-0.013235-1.143 0.02643-1.6899-0.019763 0.08207-0.24926-0.16869-0.81168 0.13114-0.8612 0.56026 0.013145 1.1434-0.026301 1.6899 0.019763zm-4.0633-1.2443c-0.24926-0.082074-0.81168 0.16868-0.8612-0.13113 0.013235-0.56054-0.02643-1.143 0.019763-1.6899 0.24926 0.082074 0.81168-0.16868 0.8612 0.13113-0.013145 0.56026 0.026301 1.1434-0.019763 1.6899zm1.9874-0.83349c-0.086509 0.24955 0.19614 0.86145-0.18612 0.83087-0.86457-0.012922-1.7505 0.025706-2.6019-0.019066 0.086509-0.24955-0.19614-0.86145 0.18612-0.83087 0.8644 0.012834 1.7507-0.025581 2.6019 0.019066zm0.02517-2.0688c-0.082076 0.24926 0.16868 0.81168-0.13113 0.8612-0.56054-0.013235-1.143 0.02643-1.6899-0.019763 0.082074-0.24926-0.16868-0.81168 0.13113-0.8612 0.56026 0.013145 1.1434-0.026301 1.6899 0.019763zm-0.84831-1.0049c0.24926 0.082074 0.81168-0.16868 0.8612 0.13113-0.013235 0.56054 0.026429 1.143-0.019763 1.6899-0.24926-0.082074-0.81168 0.16868-0.8612-0.13113 0.013145-0.56026-0.026301-1.1434 0.019763-1.6899zm1.0751-1.0506c0.26738 0.077025 0.83142-0.16134 0.90101 0.13204-0.07731 0.25196 0.20295 0.86606-0.24341 0.76386-0.30938-0.02311-0.83826 0.14727-0.67827-0.35478 0.01684-0.17466-0.03179-0.38188 0.02067-0.54112zm-3.126 0.016097c0.26738 0.077025 0.83142-0.16134 0.90101 0.13204-0.077306 0.25196 0.20295 0.86606-0.24341 0.76386-0.30938-0.02311-0.83826 0.14727-0.67827-0.35478 0.016844-0.17466-0.031783-0.38188 0.020676-0.54112z" stop-color="#000000" stroke-width=".1441"/>
 </g>
</svg>
