<svg xmlns="http://www.w3.org/2000/svg" width="1498.3" height="506.87" viewBox="0 0 1498.3 506.87"><g transform="translate(-233.7 -345.73)"><path d="M109.272,43.07a50.1,50.1,0,0,1-.035-70.816c26.56-26.561,26.525-38.256,0-64.782s-37.256-26.525-63.781,0a50.057,50.057,0,0,1-70.781,0A50.106,50.106,0,0,1-38.847-138.69a49.78,49.78,0,0,1,13.565-25.021c26.561-26.561,26.525-38.255,0-64.781a50.077,50.077,0,0,1-.07-70.851A49.88,49.88,0,0,1,10.033-314a49.9,49.9,0,0,1,35.4,14.657,50.1,50.1,0,0,1,.035,70.816c-26.56,26.561-26.525,38.255,0,64.781s37.256,26.525,63.781,0a50.057,50.057,0,0,1,70.781,0,50.106,50.106,0,0,1,13.521,46.163,49.781,49.781,0,0,1-13.565,25.021c-26.561,26.561-26.525,38.256,0,64.782a50.077,50.077,0,0,1,.07,70.851,50.056,50.056,0,0,1-70.78,0Z" transform="translate(273.7 659.73)" fill="#4272f3"/><path d="M50,0A50,50,0,1,1,0,50,50,50,0,0,1,50,0Z" transform="translate(234 617.6)" fill="#b7cfea"/><path d="M50,0A50,50,0,1,1,0,50,50,50,0,0,1,50,0Z" transform="translate(369 347.6)" fill="#b7cfea"/><path d="M50,0A50,50,0,1,1,0,50,50,50,0,0,1,50,0Z" transform="translate(504 347.6)" fill="#b7cfea"/><path d="M50,0A50,50,0,1,1,0,50,50,50,0,0,1,50,0Z" transform="translate(504 482.6)" fill="#b7cfea"/><path d="M50,0A50,50,0,1,1,0,50,50,50,0,0,1,50,0Z" transform="translate(504 617.6)" fill="#b7cfea"/><path d="M50,0A50,50,0,1,1,0,50,50,50,0,0,1,50,0Z" transform="translate(369 752.6)" fill="#b7cfea"/><path d="M210.4,0h54.8V-266.8H208.4V-94L84.8-266.8H26.4V0H83.2V-179.2ZM432.8,0h50.8V-124.8c0-55.6-40.4-73.2-84.4-73.2-30.4,0-60.8,9.6-84.4,30.4l19.2,34c16.4-15.2,35.6-22.8,56.4-22.8,25.6,0,42.4,12.8,42.4,32.4v26.8c-12.8-15.6-35.6-23.6-61.2-23.6-30.8,0-67.2,16.4-67.2,61.6,0,43.2,36.4,64,67.2,64,25.2,0,48-9.2,61.2-24.8Zm0-46.4c-8.4,11.2-24.4,16.8-40.8,16.8-20,0-36.4-10.4-36.4-28.4,0-18.8,16.4-29.2,36.4-29.2,16.4,0,32.4,5.6,40.8,16.8ZM664.4,0h50.8V-193.2H664.4V-62.4c-8.8,11.2-24.4,22-44,22-21.6,0-35.6-8.8-35.6-35.6V-193.2H534V-56c0,37.6,20,60.8,62.4,60.8,31.6,0,54.8-14.4,68-29.2ZM765.6,0h50.8V-266.8H765.6Zm166,4.8c21.2,0,34.8-5.6,42.4-12.4L963.2-46c-2.8,2.8-10,5.6-17.6,5.6-11.2,0-17.6-9.2-17.6-21.2v-87.2h39.2v-44.4H928V-246H876.8v52.8h-32v44.4h32V-48C876.8-13.6,896,4.8,931.6,4.8Z" transform="translate(758 717)" fill="#1a202c"/></g></svg>